{
    "asset" : {
        "generator" : "Khronos glTF Blender I/O v1.7.33",
        "version" : "2.0"
    },
    "scene" : 0,
    "scenes" : [
        {
            "name" : "Scene",
            "nodes" : [
                0,
                1,
                2,
                3
            ]
        }
    ],
    "nodes" : [
        {
            "mesh" : 0,
            "name" : "Sphere",
            "rotation" : [
                0,
                0,
                0.7071067690849304,
                0.7071068286895752
            ],
            "scale" : [
                0.871437132358551,
                0.871437132358551,
                0.871437132358551
            ],
            "translation" : [
                0,
                1.0008569955825806,
                0.011660099029541016
            ]
        },
        {
            "mesh" : 1,
            "name" : "Sphere.001",
            "scale" : [
                0.25883811712265015,
                0.5684228539466858,
                0.5684228539466858
            ],
            "translation" : [
                -0.057170066982507706,
                0.958343505859375,
                0.09960508346557617
            ]
        },
        {
            "mesh" : 2,
            "name" : "Sphere.002",
            "scale" : [
                0.7687699794769287,
                1.6882615089416504,
                1.6882615089416504
            ],
            "translation" : [
                -0.24097608029842377,
                1.0008569955825806,
                0.011660099029541016
            ]
        },
        {
            "mesh" : 3,
            "name" : "Text",
            "rotation" : [
                0.5,
                0.5,
                -0.5,
                0.4999999701976776
            ],
            "scale" : [
                0.45779749751091003,
                0.45779749751091003,
                0.45779749751091003
            ],
            "translation" : [
                -0.16859480738639832,
                2.6151411533355713,
                0.9345450401306152
            ]
        }
    ],
    "materials" : [
        {
            "doubleSided" : true,
            "name" : "Material.003",
            "pbrMetallicRoughness" : {
                "baseColorFactor" : [
                    0.8000000715255737,
                    0.2900178134441376,
                    0.12307845801115036,
                    1
                ],
                "metallicFactor" : 0,
                "roughnessFactor" : 0.4000000059604645
            }
        },
        {
            "doubleSided" : true,
            "name" : "Material.002",
            "pbrMetallicRoughness" : {
                "baseColorFactor" : [
                    1,
                    0.6121273636817932,
                    0.39320942759513855,
                    1
                ],
                "metallicFactor" : 0,
                "roughnessFactor" : 0.4000000059604645
            }
        },
        {
            "doubleSided" : true,
            "name" : "Material.001",
            "pbrMetallicRoughness" : {
                "baseColorFactor" : [
                    1,
                    0.2241017073392868,
                    0.11240486800670624,
                    1
                ],
                "metallicFactor" : 0,
                "roughnessFactor" : 0.4000000059604645
            }
        },
        {
            "doubleSided" : true,
            "name" : "Material.005",
            "pbrMetallicRoughness" : {
                "baseColorFactor" : [
                    0,
                    0,
                    0,
                    1
                ],
                "metallicFactor" : 0,
                "roughnessFactor" : 0.4000000059604645
            }
        }
    ],
    "meshes" : [
        {
            "name" : "Sphere.001",
            "primitives" : [
                {
                    "attributes" : {
                        "POSITION" : 0,
                        "NORMAL" : 1,
                        "TEXCOORD_0" : 2
                    },
                    "indices" : 3,
                    "material" : 0
                }
            ]
        },
        {
            "name" : "Sphere.002",
            "primitives" : [
                {
                    "attributes" : {
                        "POSITION" : 4,
                        "NORMAL" : 5,
                        "TEXCOORD_0" : 6
                    },
                    "indices" : 7,
                    "material" : 1
                }
            ]
        },
        {
            "name" : "Sphere.003",
            "primitives" : [
                {
                    "attributes" : {
                        "POSITION" : 8,
                        "NORMAL" : 9,
                        "TEXCOORD_0" : 10
                    },
                    "indices" : 7,
                    "material" : 2
                }
            ]
        },
        {
            "name" : "Text",
            "primitives" : [
                {
                    "attributes" : {
                        "POSITION" : 11,
                        "NORMAL" : 12,
                        "TEXCOORD_0" : 13
                    },
                    "indices" : 14,
                    "material" : 3
                }
            ]
        }
    ],
    "accessors" : [
        {
            "bufferView" : 0,
            "componentType" : 5126,
            "count" : 724,
            "max" : [
                0.9965842366218567,
                1,
                0.9965841174125671
            ],
            "min" : [
                -0.9965838193893433,
                0.0825793594121933,
                -0.9965844750404358
            ],
            "type" : "VEC3"
        },
        {
            "bufferView" : 1,
            "componentType" : 5126,
            "count" : 724,
            "type" : "VEC3"
        },
        {
            "bufferView" : 2,
            "componentType" : 5126,
            "count" : 724,
            "type" : "VEC2"
        },
        {
            "bufferView" : 3,
            "componentType" : 5123,
            "count" : 3840,
            "type" : "SCALAR"
        },
        {
            "bufferView" : 4,
            "componentType" : 5126,
            "count" : 448,
            "max" : [
                0.3186355531215668,
                0.32000064849853516,
                0.3186355233192444
            ],
            "min" : [
                -0.3186354637145996,
                -0.32000064849853516,
                -0.31863558292388916
            ],
            "type" : "VEC3"
        },
        {
            "bufferView" : 5,
            "componentType" : 5126,
            "count" : 448,
            "type" : "VEC3"
        },
        {
            "bufferView" : 6,
            "componentType" : 5126,
            "count" : 448,
            "type" : "VEC2"
        },
        {
            "bufferView" : 7,
            "componentType" : 5123,
            "count" : 2304,
            "type" : "SCALAR"
        },
        {
            "bufferView" : 8,
            "componentType" : 5126,
            "count" : 448,
            "max" : [
                0.3186355531215668,
                0.32000064849853516,
                0.3186355233192444
            ],
            "min" : [
                -0.3186354637145996,
                -0.32000064849853516,
                -0.31863558292388916
            ],
            "type" : "VEC3"
        },
        {
            "bufferView" : 9,
            "componentType" : 5126,
            "count" : 448,
            "type" : "VEC3"
        },
        {
            "bufferView" : 10,
            "componentType" : 5126,
            "count" : 448,
            "type" : "VEC2"
        },
        {
            "bufferView" : 11,
            "componentType" : 5126,
            "count" : 6692,
            "max" : [
                3.681000232696533,
                0.03999999910593033,
                1.2300000190734863
            ],
            "min" : [
                0.07600000500679016,
                -0.03999999910593033,
                -0.6820000410079956
            ],
            "type" : "VEC3"
        },
        {
            "bufferView" : 12,
            "componentType" : 5126,
            "count" : 6692,
            "type" : "VEC3"
        },
        {
            "bufferView" : 13,
            "componentType" : 5126,
            "count" : 6692,
            "type" : "VEC2"
        },
        {
            "bufferView" : 14,
            "componentType" : 5123,
            "count" : 12372,
            "type" : "SCALAR"
        }
    ],
    "bufferViews" : [
        {
            "buffer" : 0,
            "byteLength" : 8688,
            "byteOffset" : 0
        },
        {
            "buffer" : 0,
            "byteLength" : 8688,
            "byteOffset" : 8688
        },
        {
            "buffer" : 0,
            "byteLength" : 5792,
            "byteOffset" : 17376
        },
        {
            "buffer" : 0,
            "byteLength" : 7680,
            "byteOffset" : 23168
        },
        {
            "buffer" : 0,
            "byteLength" : 5376,
            "byteOffset" : 30848
        },
        {
            "buffer" : 0,
            "byteLength" : 5376,
            "byteOffset" : 36224
        },
        {
            "buffer" : 0,
            "byteLength" : 3584,
            "byteOffset" : 41600
        },
        {
            "buffer" : 0,
            "byteLength" : 4608,
            "byteOffset" : 45184
        },
        {
            "buffer" : 0,
            "byteLength" : 5376,
            "byteOffset" : 49792
        },
        {
            "buffer" : 0,
            "byteLength" : 5376,
            "byteOffset" : 55168
        },
        {
            "buffer" : 0,
            "byteLength" : 3584,
            "byteOffset" : 60544
        },
        {
            "buffer" : 0,
            "byteLength" : 80304,
            "byteOffset" : 64128
        },
        {
            "buffer" : 0,
            "byteLength" : 80304,
            "byteOffset" : 144432
        },
        {
            "buffer" : 0,
            "byteLength" : 53536,
            "byteOffset" : 224736
        },
        {
            "buffer" : 0,
            "byteLength" : 24744,
            "byteOffset" : 278272
        }
    ],
    "buffers" : [
        {
            "byteLength" : 303016,
            "uri" : "data:application/octet-stream;base64,"
        }
    ]
}
