{
    "asset" : {
        "generator" : "Khronos glTF Blender I/O v1.7.33",
        "version" : "2.0"
    },
    "scene" : 0,
    "scenes" : [
        {
            "name" : "Scene",
            "nodes" : [
                0,
                2,
                3
            ]
        }
    ],
    "nodes" : [
        {
            "mesh" : 0,
            "name" : "Mesh (2)_SKIN_0",
            "rotation" : [
                0,
                0.9990535974502563,
                0,
                -0.04349720478057861
            ],
            "scale" : [
                0.01875087060034275,
                0.0187508724629879,
                0.01875087060034275
            ],
            "translation" : [
                -0.14505839347839355,
                0.7127724885940552,
                0
            ]
        },
        {
            "name" : "Object_6"
        },
        {
            "children" : [
                1
            ],
            "name" : "Camera.001",
            "rotation" : [
                -0.046749141067266464,
                0.24201065301895142,
                -0.10331179946660995,
                0.9636244177818298
            ],
            "translation" : [
                -316.37701416015625,
                95.9324722290039,
                189.9499969482422
            ]
        },
        {
            "mesh" : 1,
            "name" : "Text",
            "rotation" : [
                0.5,
                0.5,
                -0.5,
                0.4999999701976776
            ],
            "scale" : [
                0.678156316280365,
                0.678156316280365,
                0.678156316280365
            ],
            "translation" : [
                0,
                2.534115791320801,
                1.9331815242767334
            ]
        }
    ],
    "materials" : [
        {
            "doubleSided" : true,
            "name" : "Material.001",
            "pbrMetallicRoughness" : {
                "baseColorFactor" : [
                    1,
                    0.4279356598854065,
                    0.28420931100845337,
                    1
                ],
                "metallicFactor" : 0,
                "roughnessFactor" : 0.4000000059604645
            }
        },
        {
            "doubleSided" : true,
            "name" : "Material.002",
            "pbrMetallicRoughness" : {
                "baseColorFactor" : [
                    0,
                    0,
                    0,
                    1
                ],
                "metallicFactor" : 0,
                "roughnessFactor" : 0.4000000059604645
            }
        }
    ],
    "meshes" : [
        {
            "name" : "Mesh (2)_SKIN_0",
            "primitives" : [
                {
                    "attributes" : {
                        "POSITION" : 0,
                        "NORMAL" : 1,
                        "TEXCOORD_0" : 2
                    },
                    "indices" : 3,
                    "material" : 0
                }
            ]
        },
        {
            "name" : "Text",
            "primitives" : [
                {
                    "attributes" : {
                        "POSITION" : 4,
                        "NORMAL" : 5,
                        "TEXCOORD_0" : 6
                    },
                    "indices" : 7,
                    "material" : 1
                }
            ]
        }
    ],
    "accessors" : [
        {
            "bufferView" : 0,
            "componentType" : 5126,
            "count" : 12359,
            "max" : [
                33.53062438964844,
                66.30328369140625,
                65.80432891845703
            ],
            "min" : [
                -33.53062438964844,
                -32.30328369140625,
                -26.80433464050293
            ],
            "type" : "VEC3"
        },
        {
            "bufferView" : 1,
            "componentType" : 5126,
            "count" : 12359,
            "type" : "VEC3"
        },
        {
            "bufferView" : 2,
            "componentType" : 5126,
            "count" : 12359,
            "type" : "VEC2"
        },
        {
            "bufferView" : 3,
            "componentType" : 5123,
            "count" : 41904,
            "type" : "SCALAR"
        },
        {
            "bufferView" : 4,
            "componentType" : 5126,
            "count" : 6488,
            "max" : [
                6.77500057220459,
                0.03999999910593033,
                0.009000000543892384
            ],
            "min" : [
                0.07600000500679016,
                -0.03999999910593033,
                -0.6910000443458557
            ],
            "type" : "VEC3"
        },
        {
            "bufferView" : 5,
            "componentType" : 5126,
            "count" : 6488,
            "type" : "VEC3"
        },
        {
            "bufferView" : 6,
            "componentType" : 5126,
            "count" : 6488,
            "type" : "VEC2"
        },
        {
            "bufferView" : 7,
            "componentType" : 5123,
            "count" : 11808,
            "type" : "SCALAR"
        }
    ],
    "bufferViews" : [
        {
            "buffer" : 0,
            "byteLength" : 148308,
            "byteOffset" : 0
        },
        {
            "buffer" : 0,
            "byteLength" : 148308,
            "byteOffset" : 148308
        },
        {
            "buffer" : 0,
            "byteLength" : 98872,
            "byteOffset" : 296616
        },
        {
            "buffer" : 0,
            "byteLength" : 83808,
            "byteOffset" : 395488
        },
        {
            "buffer" : 0,
            "byteLength" : 77856,
            "byteOffset" : 479296
        },
        {
            "buffer" : 0,
            "byteLength" : 77856,
            "byteOffset" : 557152
        },
        {
            "buffer" : 0,
            "byteLength" : 51904,
            "byteOffset" : 635008
        },
        {
            "buffer" : 0,
            "byteLength" : 23616,
            "byteOffset" : 686912
        }
    ],
    "buffers" : [
        {
            "byteLength" : 710528,
            "uri" : "data:application/octet-stream;base64,"
        }
    ]
}
