{
    "asset" : {
        "generator" : "Khronos glTF Blender I/O v1.7.33",
        "version" : "2.0"
    },
    "scene" : 0,
    "scenes" : [
        {
            "name" : "Scene",
            "nodes" : [
                0,
                1,
                2
            ]
        }
    ],
    "nodes" : [
        {
            "mesh" : 0,
            "name" : "clover_9",
            "scale" : [
                0.11261381953954697,
                0.11261381953954697,
                0.11261381953954697
            ],
            "translation" : [
                -0.8619657754898071,
                -0.0068565309047698975,
                -0.3522171974182129
            ]
        },
        {
            "mesh" : 1,
            "name" : "flower_A",
            "scale" : [
                0.11261381953954697,
                0.11261381953954697,
                0.11261381953954697
            ],
            "translation" : [
                1.1864492893218994,
                0.011304765939712524,
                -0.11955802142620087
            ]
        },
        {
            "mesh" : 2,
            "name" : "Text",
            "rotation" : [
                0,
                0.7071068286895752,
                -0.7071068286895752,
                -1.1520232590100932e-07
            ],
            "scale" : [
                0.18018211424350739,
                0.18018211424350739,
                0.18018211424350739
            ],
            "translation" : [
                0.4007517099380493,
                1.1247056722640991,
                -0.025591276586055756
            ]
        }
    ],
    "materials" : [
        {
            "doubleSided" : true,
            "name" : "Material.002",
            "pbrMetallicRoughness" : {
                "baseColorFactor" : [
                    0.06573203206062317,
                    0.8000000715255737,
                    0.05624237284064293,
                    1
                ],
                "metallicFactor" : 0,
                "roughnessFactor" : 0.4000000059604645
            }
        },
        {
            "doubleSided" : true,
            "name" : "Material.004",
            "pbrMetallicRoughness" : {
                "baseColorFactor" : [
                    0.030947890132665634,
                    0.8000000715255737,
                    0.31347939372062683,
                    1
                ],
                "metallicFactor" : 0,
                "roughnessFactor" : 0.4000000059604645
            }
        },
        {
            "doubleSided" : true,
            "name" : "Material.001",
            "pbrMetallicRoughness" : {
                "baseColorFactor" : [
                    0.0020634501706808805,
                    0.0020634501706808805,
                    0.0020634501706808805,
                    1
                ],
                "metallicFactor" : 0,
                "roughnessFactor" : 0.4000000059604645
            }
        }
    ],
    "meshes" : [
        {
            "name" : "Cube.006",
            "primitives" : [
                {
                    "attributes" : {
                        "POSITION" : 0,
                        "NORMAL" : 1,
                        "TEXCOORD_0" : 2
                    },
                    "indices" : 3,
                    "material" : 0
                }
            ]
        },
        {
            "name" : "Cube.014",
            "primitives" : [
                {
                    "attributes" : {
                        "POSITION" : 4,
                        "NORMAL" : 5,
                        "TEXCOORD_0" : 6
                    },
                    "indices" : 7,
                    "material" : 1
                }
            ]
        },
        {
            "name" : "Text",
            "primitives" : [
                {
                    "attributes" : {
                        "POSITION" : 8,
                        "NORMAL" : 9,
                        "TEXCOORD_0" : 10
                    },
                    "indices" : 11,
                    "material" : 2
                }
            ]
        }
    ],
    "accessors" : [
        {
            "bufferView" : 0,
            "componentType" : 5126,
            "count" : 930,
            "max" : [
                19.243328094482422,
                5.553712368011475,
                2.6546244621276855
            ],
            "min" : [
                -4.952848434448242,
                -0.023103872314095497,
                -2.171642303466797
            ],
            "type" : "VEC3"
        },
        {
            "bufferView" : 1,
            "componentType" : 5126,
            "count" : 930,
            "type" : "VEC3"
        },
        {
            "bufferView" : 2,
            "componentType" : 5126,
            "count" : 930,
            "type" : "VEC2"
        },
        {
            "bufferView" : 3,
            "componentType" : 5123,
            "count" : 3600,
            "type" : "SCALAR"
        },
        {
            "bufferView" : 4,
            "componentType" : 5126,
            "count" : 4610,
            "max" : [
                0.9158575534820557,
                8.991328239440918,
                0.9573150277137756
            ],
            "min" : [
                -22.68891143798828,
                0,
                -0.9143377542495728
            ],
            "type" : "VEC3"
        },
        {
            "bufferView" : 5,
            "componentType" : 5126,
            "count" : 4610,
            "type" : "VEC3"
        },
        {
            "bufferView" : 6,
            "componentType" : 5126,
            "count" : 4610,
            "type" : "VEC2"
        },
        {
            "bufferView" : 7,
            "componentType" : 5123,
            "count" : 14070,
            "type" : "SCALAR"
        },
        {
            "bufferView" : 8,
            "componentType" : 5126,
            "count" : 6997,
            "max" : [
                5.686000823974609,
                0.04999999701976776,
                0.23000000417232513
            ],
            "min" : [
                0,
                -0.04999999701976776,
                -0.6860000491142273
            ],
            "type" : "VEC3"
        },
        {
            "bufferView" : 9,
            "componentType" : 5126,
            "count" : 6997,
            "type" : "VEC3"
        },
        {
            "bufferView" : 10,
            "componentType" : 5126,
            "count" : 6997,
            "type" : "VEC2"
        },
        {
            "bufferView" : 11,
            "componentType" : 5123,
            "count" : 12276,
            "type" : "SCALAR"
        }
    ],
    "bufferViews" : [
        {
            "buffer" : 0,
            "byteLength" : 11160,
            "byteOffset" : 0
        },
        {
            "buffer" : 0,
            "byteLength" : 11160,
            "byteOffset" : 11160
        },
        {
            "buffer" : 0,
            "byteLength" : 7440,
            "byteOffset" : 22320
        },
        {
            "buffer" : 0,
            "byteLength" : 7200,
            "byteOffset" : 29760
        },
        {
            "buffer" : 0,
            "byteLength" : 55320,
            "byteOffset" : 36960
        },
        {
            "buffer" : 0,
            "byteLength" : 55320,
            "byteOffset" : 92280
        },
        {
            "buffer" : 0,
            "byteLength" : 36880,
            "byteOffset" : 147600
        },
        {
            "buffer" : 0,
            "byteLength" : 28140,
            "byteOffset" : 184480
        },
        {
            "buffer" : 0,
            "byteLength" : 83964,
            "byteOffset" : 212620
        },
        {
            "buffer" : 0,
            "byteLength" : 83964,
            "byteOffset" : 296584
        },
        {
            "buffer" : 0,
            "byteLength" : 55976,
            "byteOffset" : 380548
        },
        {
            "buffer" : 0,
            "byteLength" : 24552,
            "byteOffset" : 436524
        }
    ],
    "buffers" : [
        {
            "byteLength" : 461076,
            "uri" : "data:application/octet-stream;base64,"
        }
    ]
}
