{
    "asset" : {
        "generator" : "Khronos glTF Blender I/O v0.9.36",
        "version" : "2.0"
    },
    "scene" : 0,
    "scenes" : [
        {
            "name" : "Scene",
            "nodes" : [
                0,
                1,
                2,
                3,
                4,
                5
            ]
        }
    ],
    "nodes" : [
        {
            "name" : "Circle",
            "rotation" : [
                0.2025313526391983,
                -0.026319891214370728,
                0.12625956535339355,
                0.9707455039024353
            ],
            "scale" : [
                0.11101294308900833,
                0.11101296544075012,
                0.14416128396987915
            ],
            "translation" : [
                -0.8913779258728027,
                2.374130964279175,
                1.3892818689346313
            ]
        },
        {
            "mesh" : 0,
            "name" : "Cube",
            "rotation" : [
                0,
                0.0012494322145357728,
                0,
                1
            ],
            "scale" : [
                1.3159830570220947,
                1,
                0.79315584897995
            ],
            "translation" : [
                -0.9468507766723633,
                2.6319522857666016,
                2.7657470703125
            ]
        },
        {
            "mesh" : 1,
            "name" : "Cube.001",
            "rotation" : [
                0,
                0.0012494322145357728,
                0,
                1
            ],
            "scale" : [
                1,
                0.21048249304294586,
                1.3284927606582642
            ],
            "translation" : [
                -0.969851016998291,
                0.7391164302825928,
                -6.438764572143555
            ]
        },
        {
            "mesh" : 2,
            "name" : "Cylinder",
            "rotation" : [
                -0.5432095527648926,
                -0.10788998752832413,
                0.07066801935434341,
                0.8296319842338562
            ],
            "scale" : [
                0.3693356215953827,
                3.8765382766723633,
                0.3693356215953827
            ],
            "translation" : [
                -0.9388507008552551,
                3.856900691986084,
                -2.081320285797119
            ]
        },
        {
            "mesh" : 3,
            "name" : "Plane",
            "rotation" : [
                0,
                0.0012494322145357728,
                0,
                1
            ],
            "scale" : [
                6.785769462585449,
                6.785769462585449,
                6.785769462585449
            ],
            "translation" : [
                -0.9592589735984802,
                -0.4501091241836548,
                -2.1998727321624756
            ]
        },
        {
            "name" : "Text",
            "rotation" : [
                0.5,
                0.5,
                -0.5,
                0.4999999701976776
            ],
            "scale" : [
                0.9637589454650879,
                0.9637589454650879,
                0.9637589454650879
            ],
            "translation" : [
                0.04804381728172302,
                8.463907241821289,
                0.760695219039917
            ]
        }
    ],
    "materials" : [
        {
            "doubleSided" : true,
            "name" : "Material.002",
            "pbrMetallicRoughness" : {}
        },
        {
            "doubleSided" : true,
            "name" : "Material.003",
            "pbrMetallicRoughness" : {}
        },
        {
            "doubleSided" : true,
            "name" : "Material.005",
            "pbrMetallicRoughness" : {}
        },
        {
            "doubleSided" : true,
            "name" : "Material",
            "pbrMetallicRoughness" : {}
        },
        {
            "doubleSided" : true,
            "name" : "Material.001",
            "pbrMetallicRoughness" : {}
        }
    ],
    "meshes" : [
        {
            "name" : "Cube.003",
            "primitives" : [
                {
                    "attributes" : {
                        "POSITION" : 0,
                        "NORMAL" : 1,
                        "TEXCOORD_0" : 2
                    },
                    "indices" : 3,
                    "material" : 0
                }
            ]
        },
        {
            "name" : "Cube.002",
            "primitives" : [
                {
                    "attributes" : {
                        "POSITION" : 4,
                        "NORMAL" : 5,
                        "TEXCOORD_0" : 6
                    },
                    "indices" : 7,
                    "material" : 1
                }
            ]
        },
        {
            "name" : "Cylinder",
            "primitives" : [
                {
                    "attributes" : {
                        "POSITION" : 8,
                        "NORMAL" : 9,
                        "TEXCOORD_0" : 10
                    },
                    "indices" : 11,
                    "material" : 2
                }
            ]
        },
        {
            "name" : "Plane",
            "primitives" : [
                {
                    "attributes" : {
                        "POSITION" : 12,
                        "NORMAL" : 13,
                        "TEXCOORD_0" : 14
                    },
                    "indices" : 15,
                    "material" : 3
                },
                {
                    "attributes" : {
                        "POSITION" : 16,
                        "NORMAL" : 17,
                        "TEXCOORD_0" : 18
                    },
                    "indices" : 19,
                    "material" : 4
                }
            ]
        }
    ],
    "accessors" : [
        {
            "bufferView" : 0,
            "componentType" : 5126,
            "count" : 40,
            "max" : [
                1,
                1,
                1
            ],
            "min" : [
                -1,
                -1,
                -1
            ],
            "type" : "VEC3"
        },
        {
            "bufferView" : 1,
            "componentType" : 5126,
            "count" : 40,
            "type" : "VEC3"
        },
        {
            "bufferView" : 2,
            "componentType" : 5126,
            "count" : 40,
            "type" : "VEC2"
        },
        {
            "bufferView" : 3,
            "componentType" : 5123,
            "count" : 72,
            "type" : "SCALAR"
        },
        {
            "bufferView" : 4,
            "componentType" : 5126,
            "count" : 263,
            "max" : [
                1,
                22.151012420654297,
                1
            ],
            "min" : [
                -1,
                -5.382966995239258,
                -1
            ],
            "type" : "VEC3"
        },
        {
            "bufferView" : 5,
            "componentType" : 5126,
            "count" : 263,
            "type" : "VEC3"
        },
        {
            "bufferView" : 6,
            "componentType" : 5126,
            "count" : 263,
            "type" : "VEC2"
        },
        {
            "bufferView" : 7,
            "componentType" : 5123,
            "count" : 462,
            "type" : "SCALAR"
        },
        {
            "bufferView" : 8,
            "componentType" : 5126,
            "count" : 3668,
            "max" : [
                1.6285358667373657,
                1.2851992845535278,
                1.6285350322723389
            ],
            "min" : [
                -1.6285345554351807,
                -1,
                -1.6285350322723389
            ],
            "type" : "VEC3"
        },
        {
            "bufferView" : 9,
            "componentType" : 5126,
            "count" : 3668,
            "type" : "VEC3"
        },
        {
            "bufferView" : 10,
            "componentType" : 5126,
            "count" : 3668,
            "type" : "VEC2"
        },
        {
            "bufferView" : 11,
            "componentType" : 5123,
            "count" : 5748,
            "type" : "SCALAR"
        },
        {
            "bufferView" : 12,
            "componentType" : 5126,
            "count" : 20,
            "max" : [
                0.7931373715400696,
                0.328582227230072,
                0.7931373119354248
            ],
            "min" : [
                -0.7931373715400696,
                0.0012681186199188232,
                -0.7931374311447144
            ],
            "type" : "VEC3"
        },
        {
            "bufferView" : 13,
            "componentType" : 5126,
            "count" : 20,
            "type" : "VEC3"
        },
        {
            "bufferView" : 14,
            "componentType" : 5126,
            "count" : 20,
            "type" : "VEC2"
        },
        {
            "bufferView" : 15,
            "componentType" : 5123,
            "count" : 30,
            "type" : "SCALAR"
        },
        {
            "bufferView" : 16,
            "componentType" : 5126,
            "count" : 52,
            "max" : [
                1,
                0.4106241762638092,
                1
            ],
            "min" : [
                -1,
                0,
                -1
            ],
            "type" : "VEC3"
        },
        {
            "bufferView" : 17,
            "componentType" : 5126,
            "count" : 52,
            "type" : "VEC3"
        },
        {
            "bufferView" : 18,
            "componentType" : 5126,
            "count" : 52,
            "type" : "VEC2"
        },
        {
            "bufferView" : 19,
            "componentType" : 5123,
            "count" : 78,
            "type" : "SCALAR"
        }
    ],
    "bufferViews" : [
        {
            "buffer" : 0,
            "byteLength" : 480,
            "byteOffset" : 0
        },
        {
            "buffer" : 0,
            "byteLength" : 480,
            "byteOffset" : 480
        },
        {
            "buffer" : 0,
            "byteLength" : 320,
            "byteOffset" : 960
        },
        {
            "buffer" : 0,
            "byteLength" : 144,
            "byteOffset" : 1280
        },
        {
            "buffer" : 0,
            "byteLength" : 3156,
            "byteOffset" : 1424
        },
        {
            "buffer" : 0,
            "byteLength" : 3156,
            "byteOffset" : 4580
        },
        {
            "buffer" : 0,
            "byteLength" : 2104,
            "byteOffset" : 7736
        },
        {
            "buffer" : 0,
            "byteLength" : 924,
            "byteOffset" : 9840
        },
        {
            "buffer" : 0,
            "byteLength" : 44016,
            "byteOffset" : 10764
        },
        {
            "buffer" : 0,
            "byteLength" : 44016,
            "byteOffset" : 54780
        },
        {
            "buffer" : 0,
            "byteLength" : 29344,
            "byteOffset" : 98796
        },
        {
            "buffer" : 0,
            "byteLength" : 11496,
            "byteOffset" : 128140
        },
        {
            "buffer" : 0,
            "byteLength" : 240,
            "byteOffset" : 139636
        },
        {
            "buffer" : 0,
            "byteLength" : 240,
            "byteOffset" : 139876
        },
        {
            "buffer" : 0,
            "byteLength" : 160,
            "byteOffset" : 140116
        },
        {
            "buffer" : 0,
            "byteLength" : 60,
            "byteOffset" : 140276
        },
        {
            "buffer" : 0,
            "byteLength" : 624,
            "byteOffset" : 140336
        },
        {
            "buffer" : 0,
            "byteLength" : 624,
            "byteOffset" : 140960
        },
        {
            "buffer" : 0,
            "byteLength" : 416,
            "byteOffset" : 141584
        },
        {
            "buffer" : 0,
            "byteLength" : 156,
            "byteOffset" : 142000
        }
    ],
    "buffers" : [
        {
            "byteLength" : 142156,
            "uri" : "data:application/octet-stream;base64,"
        }
    ]
}
