{
    "asset" : {
        "generator" : "Khronos glTF Blender I/O v1.7.33",
        "version" : "2.0"
    },
    "scene" : 0,
    "scenes" : [
        {
            "name" : "Scene",
            "nodes" : [
                0,
                1,
                2,
                3,
                4,
                5
            ]
        }
    ],
    "nodes" : [
        {
            "name" : "Circle",
            "rotation" : [
                0.2025313526391983,
                -0.026319891214370728,
                0.12625956535339355,
                0.9707455039024353
            ],
            "scale" : [
                0.03424953669309616,
                0.03424954414367676,
                0.04447640851140022
            ],
            "translation" : [
                0.016928553581237793,
                0.9291666746139526,
                1.0246669054031372
            ]
        },
        {
            "mesh" : 0,
            "name" : "Cube",
            "rotation" : [
                0,
                0.0012494322145357728,
                0,
                1
            ],
            "scale" : [
                0.40600499510765076,
                0.3085184097290039,
                0.24470318853855133
            ],
            "translation" : [
                -0.00018578767776489258,
                1.0087093114852905,
                1.4493317604064941
            ]
        },
        {
            "mesh" : 1,
            "name" : "Cube.001",
            "rotation" : [
                0,
                0.0012494322145357728,
                0,
                1
            ],
            "scale" : [
                0.3085184097290039,
                0.06493772566318512,
                0.40986448526382446
            ],
            "translation" : [
                -0.007281839847564697,
                0.4247344732284546,
                -1.3904297351837158
            ]
        },
        {
            "mesh" : 2,
            "name" : "Cylinder",
            "rotation" : [
                -0.5432095527648926,
                -0.10788998752832413,
                0.07066801935434341,
                0.8296319842338562
            ],
            "scale" : [
                0.1139468401670456,
                1.1959834098815918,
                0.1139468401670456
            ],
            "translation" : [
                0.002282381057739258,
                1.38662850856781,
                -0.046077847480773926
            ]
        },
        {
            "mesh" : 3,
            "name" : "Plane",
            "rotation" : [
                0,
                0.0012494322145357728,
                0,
                1
            ],
            "scale" : [
                2.0935347080230713,
                2.0935347080230713,
                2.0935347080230713
            ],
            "translation" : [
                -0.004013955593109131,
                0.05783653259277344,
                -0.08265352249145508
            ]
        },
        {
            "mesh" : 4,
            "name" : "Text",
            "rotation" : [
                0.5,
                0.5,
                -0.5,
                0.4999999701976776
            ],
            "scale" : [
                0.2973373830318451,
                0.2973373830318451,
                0.2973373830318451
            ],
            "translation" : [
                0.3067575693130493,
                2.8079752922058105,
                0.8307363986968994
            ]
        }
    ],
    "materials" : [
        {
            "doubleSided" : true,
            "name" : "Material.002",
            "pbrMetallicRoughness" : {
                "baseColorFactor" : [
                    0.14239992201328278,
                    0.02441142126917839,
                    0.0014102585846558213,
                    1
                ],
                "metallicFactor" : 0,
                "roughnessFactor" : 0.4000000059604645
            }
        },
        {
            "doubleSided" : true,
            "name" : "Material.003",
            "pbrMetallicRoughness" : {
                "baseColorFactor" : [
                    0.19017760455608368,
                    0.0282016359269619,
                    0.007163700647652149,
                    1
                ],
                "metallicFactor" : 0,
                "roughnessFactor" : 0.4000000059604645
            }
        },
        {
            "doubleSided" : true,
            "name" : "Material.005",
            "pbrMetallicRoughness" : {
                "baseColorFactor" : [
                    0.19017769396305084,
                    0.19017769396305084,
                    0.19017769396305084,
                    1
                ],
                "metallicFactor" : 0,
                "roughnessFactor" : 0.4000000059604645
            }
        },
        {
            "doubleSided" : true,
            "name" : "Material",
            "pbrMetallicRoughness" : {
                "baseColorFactor" : [
                    0.027536863461136818,
                    0.3441050946712494,
                    0.8000000715255737,
                    1
                ],
                "metallicFactor" : 0,
                "roughnessFactor" : 0.4000000059604645
            }
        },
        {
            "doubleSided" : true,
            "name" : "Material.001",
            "pbrMetallicRoughness" : {
                "baseColorFactor" : [
                    0.7356582283973694,
                    0.15988080203533173,
                    0.04417508468031883,
                    1
                ],
                "metallicFactor" : 0,
                "roughnessFactor" : 0.4000000059604645
            }
        },
        {
            "doubleSided" : true,
            "name" : "Material.006",
            "pbrMetallicRoughness" : {
                "baseColorFactor" : [
                    0.03967956826090813,
                    0.03967956826090813,
                    0.03967956826090813,
                    1
                ],
                "metallicFactor" : 0,
                "roughnessFactor" : 0.4000000059604645
            }
        }
    ],
    "meshes" : [
        {
            "name" : "Cube.003",
            "primitives" : [
                {
                    "attributes" : {
                        "POSITION" : 0,
                        "NORMAL" : 1,
                        "TEXCOORD_0" : 2
                    },
                    "indices" : 3,
                    "material" : 0
                }
            ]
        },
        {
            "name" : "Cube.002",
            "primitives" : [
                {
                    "attributes" : {
                        "POSITION" : 4,
                        "NORMAL" : 5,
                        "TEXCOORD_0" : 6
                    },
                    "indices" : 7,
                    "material" : 1
                }
            ]
        },
        {
            "name" : "Cylinder",
            "primitives" : [
                {
                    "attributes" : {
                        "POSITION" : 8,
                        "NORMAL" : 9,
                        "TEXCOORD_0" : 10
                    },
                    "indices" : 11,
                    "material" : 2
                }
            ]
        },
        {
            "name" : "Plane",
            "primitives" : [
                {
                    "attributes" : {
                        "POSITION" : 12,
                        "NORMAL" : 13,
                        "TEXCOORD_0" : 14
                    },
                    "indices" : 15,
                    "material" : 3
                },
                {
                    "attributes" : {
                        "POSITION" : 16,
                        "NORMAL" : 17,
                        "TEXCOORD_0" : 18
                    },
                    "indices" : 19,
                    "material" : 4
                }
            ]
        },
        {
            "name" : "Text",
            "primitives" : [
                {
                    "attributes" : {
                        "POSITION" : 20,
                        "NORMAL" : 21,
                        "TEXCOORD_0" : 22
                    },
                    "indices" : 23,
                    "material" : 5
                }
            ]
        }
    ],
    "accessors" : [
        {
            "bufferView" : 0,
            "componentType" : 5126,
            "count" : 40,
            "max" : [
                1,
                1,
                1
            ],
            "min" : [
                -1,
                -1,
                -1
            ],
            "type" : "VEC3"
        },
        {
            "bufferView" : 1,
            "componentType" : 5126,
            "count" : 40,
            "type" : "VEC3"
        },
        {
            "bufferView" : 2,
            "componentType" : 5126,
            "count" : 40,
            "type" : "VEC2"
        },
        {
            "bufferView" : 3,
            "componentType" : 5123,
            "count" : 72,
            "type" : "SCALAR"
        },
        {
            "bufferView" : 4,
            "componentType" : 5126,
            "count" : 235,
            "max" : [
                1,
                22.151012420654297,
                1
            ],
            "min" : [
                -1,
                -5.382966995239258,
                -1
            ],
            "type" : "VEC3"
        },
        {
            "bufferView" : 5,
            "componentType" : 5126,
            "count" : 235,
            "type" : "VEC3"
        },
        {
            "bufferView" : 6,
            "componentType" : 5126,
            "count" : 235,
            "type" : "VEC2"
        },
        {
            "bufferView" : 7,
            "componentType" : 5123,
            "count" : 462,
            "type" : "SCALAR"
        },
        {
            "bufferView" : 8,
            "componentType" : 5126,
            "count" : 3770,
            "max" : [
                1.6285358667373657,
                1.2851992845535278,
                1.6285350322723389
            ],
            "min" : [
                -1.6285345554351807,
                -1,
                -1.6285350322723389
            ],
            "type" : "VEC3"
        },
        {
            "bufferView" : 9,
            "componentType" : 5126,
            "count" : 3770,
            "type" : "VEC3"
        },
        {
            "bufferView" : 10,
            "componentType" : 5126,
            "count" : 3770,
            "type" : "VEC2"
        },
        {
            "bufferView" : 11,
            "componentType" : 5123,
            "count" : 5748,
            "type" : "SCALAR"
        },
        {
            "bufferView" : 12,
            "componentType" : 5126,
            "count" : 20,
            "max" : [
                0.7931373715400696,
                0.328582227230072,
                0.7931373119354248
            ],
            "min" : [
                -0.7931373715400696,
                0.0012681186199188232,
                -0.7931374311447144
            ],
            "type" : "VEC3"
        },
        {
            "bufferView" : 13,
            "componentType" : 5126,
            "count" : 20,
            "type" : "VEC3"
        },
        {
            "bufferView" : 14,
            "componentType" : 5126,
            "count" : 20,
            "type" : "VEC2"
        },
        {
            "bufferView" : 15,
            "componentType" : 5123,
            "count" : 30,
            "type" : "SCALAR"
        },
        {
            "bufferView" : 16,
            "componentType" : 5126,
            "count" : 52,
            "max" : [
                1,
                0.4106241762638092,
                1
            ],
            "min" : [
                -1,
                0,
                -1
            ],
            "type" : "VEC3"
        },
        {
            "bufferView" : 17,
            "componentType" : 5126,
            "count" : 52,
            "type" : "VEC3"
        },
        {
            "bufferView" : 18,
            "componentType" : 5126,
            "count" : 52,
            "type" : "VEC2"
        },
        {
            "bufferView" : 19,
            "componentType" : 5123,
            "count" : 78,
            "type" : "SCALAR"
        },
        {
            "bufferView" : 20,
            "componentType" : 5126,
            "count" : 7716,
            "max" : [
                7.612000465393066,
                0.059999994933605194,
                0.009000000543892384
            ],
            "min" : [
                0,
                -0.059999994933605194,
                -0.6910000443458557
            ],
            "type" : "VEC3"
        },
        {
            "bufferView" : 21,
            "componentType" : 5126,
            "count" : 7716,
            "type" : "VEC3"
        },
        {
            "bufferView" : 22,
            "componentType" : 5126,
            "count" : 7716,
            "type" : "VEC2"
        },
        {
            "bufferView" : 23,
            "componentType" : 5123,
            "count" : 13992,
            "type" : "SCALAR"
        }
    ],
    "bufferViews" : [
        {
            "buffer" : 0,
            "byteLength" : 480,
            "byteOffset" : 0
        },
        {
            "buffer" : 0,
            "byteLength" : 480,
            "byteOffset" : 480
        },
        {
            "buffer" : 0,
            "byteLength" : 320,
            "byteOffset" : 960
        },
        {
            "buffer" : 0,
            "byteLength" : 144,
            "byteOffset" : 1280
        },
        {
            "buffer" : 0,
            "byteLength" : 2820,
            "byteOffset" : 1424
        },
        {
            "buffer" : 0,
            "byteLength" : 2820,
            "byteOffset" : 4244
        },
        {
            "buffer" : 0,
            "byteLength" : 1880,
            "byteOffset" : 7064
        },
        {
            "buffer" : 0,
            "byteLength" : 924,
            "byteOffset" : 8944
        },
        {
            "buffer" : 0,
            "byteLength" : 45240,
            "byteOffset" : 9868
        },
        {
            "buffer" : 0,
            "byteLength" : 45240,
            "byteOffset" : 55108
        },
        {
            "buffer" : 0,
            "byteLength" : 30160,
            "byteOffset" : 100348
        },
        {
            "buffer" : 0,
            "byteLength" : 11496,
            "byteOffset" : 130508
        },
        {
            "buffer" : 0,
            "byteLength" : 240,
            "byteOffset" : 142004
        },
        {
            "buffer" : 0,
            "byteLength" : 240,
            "byteOffset" : 142244
        },
        {
            "buffer" : 0,
            "byteLength" : 160,
            "byteOffset" : 142484
        },
        {
            "buffer" : 0,
            "byteLength" : 60,
            "byteOffset" : 142644
        },
        {
            "buffer" : 0,
            "byteLength" : 624,
            "byteOffset" : 142704
        },
        {
            "buffer" : 0,
            "byteLength" : 624,
            "byteOffset" : 143328
        },
        {
            "buffer" : 0,
            "byteLength" : 416,
            "byteOffset" : 143952
        },
        {
            "buffer" : 0,
            "byteLength" : 156,
            "byteOffset" : 144368
        },
        {
            "buffer" : 0,
            "byteLength" : 92592,
            "byteOffset" : 144524
        },
        {
            "buffer" : 0,
            "byteLength" : 92592,
            "byteOffset" : 237116
        },
        {
            "buffer" : 0,
            "byteLength" : 61728,
            "byteOffset" : 329708
        },
        {
            "buffer" : 0,
            "byteLength" : 27984,
            "byteOffset" : 391436
        }
    ],
    "buffers" : [
        {
            "byteLength" : 419420,
            "uri" : "data:application/octet-stream;base64,"
        }
    ]
}
