{
    "asset" : {
        "generator" : "Khronos glTF Blender I/O v1.7.33",
        "version" : "2.0"
    },
    "scene" : 0,
    "scenes" : [
        {
            "name" : "Scene",
            "nodes" : [
                0,
                1,
                2,
                3,
                4
            ]
        }
    ],
    "nodes" : [
        {
            "mesh" : 0,
            "name" : "Sphere",
            "rotation" : [
                0.13210172951221466,
                0.02559415064752102,
                0.04480046406388283,
                0.9898924231529236
            ],
            "scale" : [
                0.1657235473394394,
                0.16572359204292297,
                0.1657235473394394
            ],
            "translation" : [
                0.04006107151508331,
                0.4885006546974182,
                0.10491052269935608
            ]
        },
        {
            "mesh" : 1,
            "name" : "Cylinder",
            "rotation" : [
                0.13210172951221466,
                0.02559415064752102,
                0.04480046406388283,
                0.9898924231529236
            ],
            "scale" : [
                0.09997399896383286,
                0.10245650261640549,
                0.09997399151325226
            ],
            "translation" : [
                0.052357494831085205,
                0.3442625403404236,
                0.065315842628479
            ]
        },
        {
            "mesh" : 2,
            "name" : "Sphere.001",
            "rotation" : [
                0.954305112361908,
                0.06650416553020477,
                -0.02153130993247032,
                -0.29054325819015503
            ],
            "scale" : [
                0.1657235324382782,
                0.1657235473394394,
                0.1657235473394394
            ],
            "translation" : [
                0.016878336668014526,
                0.6776601672172546,
                0.19728629291057587
            ]
        },
        {
            "mesh" : 3,
            "name" : "Cylinder.001",
            "rotation" : [
                0.954305112361908,
                0.06650416553020477,
                -0.02153130993247032,
                -0.29054325819015503
            ],
            "scale" : [
                0.09958186000585556,
                0.06951498240232468,
                0.0927700400352478
            ],
            "translation" : [
                -0.005277760326862335,
                0.8368949294090271,
                0.288499653339386
            ]
        },
        {
            "mesh" : 4,
            "name" : "Text",
            "rotation" : [
                0.5,
                0.5,
                -0.5,
                0.4999999701976776
            ],
            "scale" : [
                0.12790794670581818,
                0.12790794670581818,
                0.12790794670581818
            ],
            "translation" : [
                0.020832087844610214,
                1.1615147590637207,
                0.4402390718460083
            ]
        }
    ],
    "materials" : [
        {
            "doubleSided" : true,
            "name" : "Material.001",
            "pbrMetallicRoughness" : {
                "baseColorFactor" : [
                    0.21651916205883026,
                    0.21651916205883026,
                    0.21651916205883026,
                    1
                ],
                "metallicFactor" : 0,
                "roughnessFactor" : 0.4000000059604645
            }
        },
        {
            "doubleSided" : true,
            "name" : "Material.002",
            "pbrMetallicRoughness" : {
                "baseColorFactor" : [
                    0.8000000715255737,
                    0.20962755382061005,
                    0.17348365485668182,
                    1
                ],
                "metallicFactor" : 0,
                "roughnessFactor" : 0.4000000059604645
            }
        },
        {
            "doubleSided" : true,
            "name" : "Material.003",
            "pbrMetallicRoughness" : {
                "baseColorFactor" : [
                    0.8000000715255737,
                    0.11174196004867554,
                    0.11469662934541702,
                    1
                ],
                "metallicFactor" : 0,
                "roughnessFactor" : 0.4000000059604645
            }
        },
        {
            "doubleSided" : true,
            "name" : "Material.005",
            "pbrMetallicRoughness" : {
                "baseColorFactor" : [
                    0.8000000715255737,
                    0.14451822638511658,
                    0.16214850544929504,
                    1
                ],
                "metallicFactor" : 0,
                "roughnessFactor" : 0.4000000059604645
            }
        },
        {
            "doubleSided" : true,
            "name" : "Material.006",
            "pbrMetallicRoughness" : {
                "baseColorFactor" : [
                    0.3298906981945038,
                    0.3298906981945038,
                    0.3298906981945038,
                    1
                ],
                "metallicFactor" : 0,
                "roughnessFactor" : 0.4000000059604645
            }
        },
        {
            "doubleSided" : true,
            "name" : "Material.004",
            "pbrMetallicRoughness" : {
                "baseColorFactor" : [
                    0.8000000715255737,
                    0.24666181206703186,
                    0.20676539838314056,
                    1
                ],
                "metallicFactor" : 0,
                "roughnessFactor" : 0.4000000059604645
            }
        },
        {
            "doubleSided" : true,
            "name" : "Material.007",
            "pbrMetallicRoughness" : {
                "baseColorFactor" : [
                    0.007221094332635403,
                    0.007221094332635403,
                    0.007221094332635403,
                    1
                ],
                "metallicFactor" : 0,
                "roughnessFactor" : 0.4000000059604645
            }
        }
    ],
    "meshes" : [
        {
            "name" : "Sphere",
            "primitives" : [
                {
                    "attributes" : {
                        "POSITION" : 0,
                        "NORMAL" : 1,
                        "TEXCOORD_0" : 2
                    },
                    "indices" : 3,
                    "material" : 0
                },
                {
                    "attributes" : {
                        "POSITION" : 4,
                        "NORMAL" : 5,
                        "TEXCOORD_0" : 6
                    },
                    "indices" : 7,
                    "material" : 1
                }
            ]
        },
        {
            "name" : "Cylinder",
            "primitives" : [
                {
                    "attributes" : {
                        "POSITION" : 8,
                        "NORMAL" : 9,
                        "TEXCOORD_0" : 10
                    },
                    "indices" : 11,
                    "material" : 2
                }
            ]
        },
        {
            "name" : "Sphere.001",
            "primitives" : [
                {
                    "attributes" : {
                        "POSITION" : 12,
                        "NORMAL" : 13,
                        "TEXCOORD_0" : 14
                    },
                    "indices" : 15,
                    "material" : 3
                },
                {
                    "attributes" : {
                        "POSITION" : 16,
                        "NORMAL" : 17,
                        "TEXCOORD_0" : 18
                    },
                    "indices" : 19,
                    "material" : 4
                }
            ]
        },
        {
            "name" : "Cylinder.001",
            "primitives" : [
                {
                    "attributes" : {
                        "POSITION" : 20,
                        "NORMAL" : 21,
                        "TEXCOORD_0" : 22
                    },
                    "indices" : 11,
                    "material" : 5
                }
            ]
        },
        {
            "name" : "Text",
            "primitives" : [
                {
                    "attributes" : {
                        "POSITION" : 23,
                        "NORMAL" : 24,
                        "TEXCOORD_0" : 25
                    },
                    "indices" : 26,
                    "material" : 6
                }
            ]
        }
    ],
    "accessors" : [
        {
            "bufferView" : 0,
            "componentType" : 5126,
            "count" : 659,
            "max" : [
                0.8653898239135742,
                1,
                0.8634841442108154
            ],
            "min" : [
                -0.8653895854949951,
                -1,
                -0.866025447845459
            ],
            "type" : "VEC3"
        },
        {
            "bufferView" : 1,
            "componentType" : 5126,
            "count" : 659,
            "type" : "VEC3"
        },
        {
            "bufferView" : 2,
            "componentType" : 5126,
            "count" : 659,
            "type" : "VEC2"
        },
        {
            "bufferView" : 3,
            "componentType" : 5123,
            "count" : 3102,
            "type" : "SCALAR"
        },
        {
            "bufferView" : 4,
            "componentType" : 5126,
            "count" : 613,
            "max" : [
                0.9975754618644714,
                0.4999999701976776,
                0.995378851890564
            ],
            "min" : [
                -0.9975754022598267,
                -0.9730448722839355,
                -0.9983081817626953
            ],
            "type" : "VEC3"
        },
        {
            "bufferView" : 5,
            "componentType" : 5126,
            "count" : 613,
            "type" : "VEC3"
        },
        {
            "bufferView" : 6,
            "componentType" : 5126,
            "count" : 613,
            "type" : "VEC2"
        },
        {
            "bufferView" : 7,
            "componentType" : 5123,
            "count" : 3294,
            "type" : "SCALAR"
        },
        {
            "bufferView" : 8,
            "componentType" : 5126,
            "count" : 130,
            "max" : [
                1,
                1,
                1
            ],
            "min" : [
                -1,
                -1,
                -1
            ],
            "type" : "VEC3"
        },
        {
            "bufferView" : 9,
            "componentType" : 5126,
            "count" : 130,
            "type" : "VEC3"
        },
        {
            "bufferView" : 10,
            "componentType" : 5126,
            "count" : 130,
            "type" : "VEC2"
        },
        {
            "bufferView" : 11,
            "componentType" : 5123,
            "count" : 372,
            "type" : "SCALAR"
        },
        {
            "bufferView" : 12,
            "componentType" : 5126,
            "count" : 1037,
            "max" : [
                0.9975754618644714,
                0.35844212770462036,
                0.995378851890564
            ],
            "min" : [
                -0.9975754022598267,
                -1,
                -0.9983081817626953
            ],
            "type" : "VEC3"
        },
        {
            "bufferView" : 13,
            "componentType" : 5126,
            "count" : 1037,
            "type" : "VEC3"
        },
        {
            "bufferView" : 14,
            "componentType" : 5126,
            "count" : 1037,
            "type" : "VEC2"
        },
        {
            "bufferView" : 15,
            "componentType" : 5123,
            "count" : 5043,
            "type" : "SCALAR"
        },
        {
            "bufferView" : 16,
            "componentType" : 5126,
            "count" : 377,
            "max" : [
                0.8015344738960266,
                0.11219018697738647,
                0.8021231889724731
            ],
            "min" : [
                -0.8015343546867371,
                -0.29065120220184326,
                -0.7997694611549377
            ],
            "type" : "VEC3"
        },
        {
            "bufferView" : 17,
            "componentType" : 5126,
            "count" : 377,
            "type" : "VEC3"
        },
        {
            "bufferView" : 18,
            "componentType" : 5126,
            "count" : 377,
            "type" : "VEC2"
        },
        {
            "bufferView" : 19,
            "componentType" : 5123,
            "count" : 1845,
            "type" : "SCALAR"
        },
        {
            "bufferView" : 20,
            "componentType" : 5126,
            "count" : 130,
            "max" : [
                1,
                1,
                1
            ],
            "min" : [
                -1,
                -1,
                -1
            ],
            "type" : "VEC3"
        },
        {
            "bufferView" : 21,
            "componentType" : 5126,
            "count" : 130,
            "type" : "VEC3"
        },
        {
            "bufferView" : 22,
            "componentType" : 5126,
            "count" : 130,
            "type" : "VEC2"
        },
        {
            "bufferView" : 23,
            "componentType" : 5126,
            "count" : 7862,
            "max" : [
                4.870000839233398,
                0.08999998867511749,
                1.2300000190734863
            ],
            "min" : [
                0.04000000283122063,
                -0.08999998867511749,
                -0.6860000491142273
            ],
            "type" : "VEC3"
        },
        {
            "bufferView" : 24,
            "componentType" : 5126,
            "count" : 7862,
            "type" : "VEC3"
        },
        {
            "bufferView" : 25,
            "componentType" : 5126,
            "count" : 7862,
            "type" : "VEC2"
        },
        {
            "bufferView" : 26,
            "componentType" : 5123,
            "count" : 14508,
            "type" : "SCALAR"
        }
    ],
    "bufferViews" : [
        {
            "buffer" : 0,
            "byteLength" : 7908,
            "byteOffset" : 0
        },
        {
            "buffer" : 0,
            "byteLength" : 7908,
            "byteOffset" : 7908
        },
        {
            "buffer" : 0,
            "byteLength" : 5272,
            "byteOffset" : 15816
        },
        {
            "buffer" : 0,
            "byteLength" : 6204,
            "byteOffset" : 21088
        },
        {
            "buffer" : 0,
            "byteLength" : 7356,
            "byteOffset" : 27292
        },
        {
            "buffer" : 0,
            "byteLength" : 7356,
            "byteOffset" : 34648
        },
        {
            "buffer" : 0,
            "byteLength" : 4904,
            "byteOffset" : 42004
        },
        {
            "buffer" : 0,
            "byteLength" : 6588,
            "byteOffset" : 46908
        },
        {
            "buffer" : 0,
            "byteLength" : 1560,
            "byteOffset" : 53496
        },
        {
            "buffer" : 0,
            "byteLength" : 1560,
            "byteOffset" : 55056
        },
        {
            "buffer" : 0,
            "byteLength" : 1040,
            "byteOffset" : 56616
        },
        {
            "buffer" : 0,
            "byteLength" : 744,
            "byteOffset" : 57656
        },
        {
            "buffer" : 0,
            "byteLength" : 12444,
            "byteOffset" : 58400
        },
        {
            "buffer" : 0,
            "byteLength" : 12444,
            "byteOffset" : 70844
        },
        {
            "buffer" : 0,
            "byteLength" : 8296,
            "byteOffset" : 83288
        },
        {
            "buffer" : 0,
            "byteLength" : 10086,
            "byteOffset" : 91584
        },
        {
            "buffer" : 0,
            "byteLength" : 4524,
            "byteOffset" : 101672
        },
        {
            "buffer" : 0,
            "byteLength" : 4524,
            "byteOffset" : 106196
        },
        {
            "buffer" : 0,
            "byteLength" : 3016,
            "byteOffset" : 110720
        },
        {
            "buffer" : 0,
            "byteLength" : 3690,
            "byteOffset" : 113736
        },
        {
            "buffer" : 0,
            "byteLength" : 1560,
            "byteOffset" : 117428
        },
        {
            "buffer" : 0,
            "byteLength" : 1560,
            "byteOffset" : 118988
        },
        {
            "buffer" : 0,
            "byteLength" : 1040,
            "byteOffset" : 120548
        },
        {
            "buffer" : 0,
            "byteLength" : 94344,
            "byteOffset" : 121588
        },
        {
            "buffer" : 0,
            "byteLength" : 94344,
            "byteOffset" : 215932
        },
        {
            "buffer" : 0,
            "byteLength" : 62896,
            "byteOffset" : 310276
        },
        {
            "buffer" : 0,
            "byteLength" : 29016,
            "byteOffset" : 373172
        }
    ],
    "buffers" : [
        {
            "byteLength" : 402188,
            "uri" : "data:application/octet-stream;base64,"
        }
    ]
}
