{
    "asset" : {
        "generator" : "Khronos glTF Blender I/O v1.7.33",
        "version" : "2.0"
    },
    "scene" : 0,
    "scenes" : [
        {
            "name" : "Scene",
            "nodes" : [
                0,
                1,
                2,
                3
            ]
        }
    ],
    "nodes" : [
        {
            "mesh" : 0,
            "name" : "Mirror_001",
            "rotation" : [
                0.9299247860908508,
                0,
                0.36774981021881104,
                2.9191869543865323e-07
            ],
            "scale" : [
                -0.014540288597345352,
                -0.014540288597345352,
                -0.014540288597345352
            ],
            "translation" : [
                -1.579718828201294,
                1.3296809196472168,
                2.1721689701080322
            ]
        },
        {
            "mesh" : 1,
            "name" : "Cube",
            "scale" : [
                0.9245120882987976,
                0.7069745659828186,
                2.7670862674713135
            ],
            "translation" : [
                -0.5275868773460388,
                1.0943143367767334,
                -0.721826434135437
            ]
        },
        {
            "mesh" : 2,
            "name" : "front tires",
            "rotation" : [
                0,
                0,
                -0.7071067690849304,
                0.7071068286895752
            ],
            "scale" : [
                0.39114099740982056,
                0.35611462593078613,
                0.4008384048938751
            ],
            "translation" : [
                -1.1107077598571777,
                0.4743495583534241,
                2.029367208480835
            ]
        },
        {
            "mesh" : 3,
            "name" : "back tires",
            "rotation" : [
                0,
                0,
                -0.7071067690849304,
                0.7071068286895752
            ],
            "scale" : [
                0.39114099740982056,
                0.35611462593078613,
                0.4008384048938751
            ],
            "translation" : [
                -1.14499032497406,
                0.4651263356208801,
                -1.9566941261291504
            ]
        }
    ],
    "materials" : [
        {
            "doubleSided" : true,
            "name" : "Material.009",
            "pbrMetallicRoughness" : {
                "baseColorFactor" : [
                    0.13286367058753967,
                    0.1126926839351654,
                    0.12763898074626923,
                    1
                ],
                "metallicFactor" : 0,
                "roughnessFactor" : 0.4000000059604645
            }
        },
        {
            "doubleSided" : true,
            "name" : "Material",
            "pbrMetallicRoughness" : {
                "baseColorFactor" : [
                    1,
                    0.7809543609619141,
                    0.0723767876625061,
                    1
                ],
                "metallicFactor" : 0,
                "roughnessFactor" : 0.4000000059604645
            }
        },
        {
            "doubleSided" : true,
            "name" : "Material.004",
            "pbrMetallicRoughness" : {
                "baseColorFactor" : [
                    0,
                    0,
                    0,
                    1
                ],
                "metallicFactor" : 0,
                "roughnessFactor" : 0.4000000059604645
            }
        },
        {
            "doubleSided" : true,
            "name" : "Material.006",
            "pbrMetallicRoughness" : {
                "baseColorFactor" : [
                    0.06608410179615021,
                    0.06441490352153778,
                    0.08001182228326797,
                    1
                ],
                "metallicFactor" : 0,
                "roughnessFactor" : 0.4000000059604645
            }
        },
        {
            "doubleSided" : true,
            "name" : "Material.010",
            "pbrMetallicRoughness" : {
                "baseColorFactor" : [
                    0.8000000715255737,
                    0.013567555695772171,
                    0.013567555695772171,
                    1
                ],
                "metallicFactor" : 0,
                "roughnessFactor" : 0.4000000059604645
            }
        },
        {
            "doubleSided" : true,
            "name" : "Material.002",
            "pbrMetallicRoughness" : {
                "baseColorFactor" : [
                    0.004895644728094339,
                    0.004895644728094339,
                    0.004895644728094339,
                    1
                ],
                "metallicFactor" : 0,
                "roughnessFactor" : 0.4000000059604645
            }
        },
        {
            "doubleSided" : true,
            "name" : "Material.003",
            "pbrMetallicRoughness" : {
                "baseColorFactor" : [
                    0.0036421341355890036,
                    0.0036421341355890036,
                    0.0036421341355890036,
                    1
                ],
                "metallicFactor" : 0,
                "roughnessFactor" : 0.4000000059604645
            }
        }
    ],
    "meshes" : [
        {
            "name" : "Mesh.001",
            "primitives" : [
                {
                    "attributes" : {
                        "POSITION" : 0,
                        "NORMAL" : 1,
                        "TEXCOORD_0" : 2,
                        "TEXCOORD_1" : 3
                    },
                    "indices" : 4,
                    "material" : 0
                }
            ]
        },
        {
            "name" : "Cube.001",
            "primitives" : [
                {
                    "attributes" : {
                        "POSITION" : 5,
                        "NORMAL" : 6,
                        "TEXCOORD_0" : 7,
                        "COLOR_0" : 8
                    },
                    "indices" : 9,
                    "material" : 1
                },
                {
                    "attributes" : {
                        "POSITION" : 10,
                        "NORMAL" : 11,
                        "TEXCOORD_0" : 12,
                        "COLOR_0" : 13
                    },
                    "indices" : 14,
                    "material" : 2
                },
                {
                    "attributes" : {
                        "POSITION" : 15,
                        "NORMAL" : 16,
                        "TEXCOORD_0" : 17,
                        "COLOR_0" : 18
                    },
                    "indices" : 19,
                    "material" : 3
                },
                {
                    "attributes" : {
                        "POSITION" : 20,
                        "NORMAL" : 21,
                        "TEXCOORD_0" : 22,
                        "COLOR_0" : 23
                    },
                    "indices" : 24,
                    "material" : 4
                }
            ]
        },
        {
            "name" : "Cylinder",
            "primitives" : [
                {
                    "attributes" : {
                        "POSITION" : 25,
                        "NORMAL" : 26,
                        "TEXCOORD_0" : 27
                    },
                    "indices" : 28,
                    "material" : 5
                }
            ]
        },
        {
            "name" : "Cylinder.001",
            "primitives" : [
                {
                    "attributes" : {
                        "POSITION" : 29,
                        "NORMAL" : 30,
                        "TEXCOORD_0" : 31
                    },
                    "indices" : 32,
                    "material" : 6
                }
            ]
        }
    ],
    "accessors" : [
        {
            "bufferView" : 0,
            "componentType" : 5126,
            "count" : 352,
            "max" : [
                12.332725524902344,
                23.622047424316406,
                2.5196850299835205
            ],
            "min" : [
                0.4747656583786011,
                0,
                -24.334415435791016
            ],
            "type" : "VEC3"
        },
        {
            "bufferView" : 1,
            "componentType" : 5126,
            "count" : 352,
            "type" : "VEC3"
        },
        {
            "bufferView" : 2,
            "componentType" : 5126,
            "count" : 352,
            "type" : "VEC2"
        },
        {
            "bufferView" : 3,
            "componentType" : 5126,
            "count" : 352,
            "type" : "VEC2"
        },
        {
            "bufferView" : 4,
            "componentType" : 5123,
            "count" : 876,
            "type" : "SCALAR"
        },
        {
            "bufferView" : 5,
            "componentType" : 5126,
            "count" : 1293,
            "max" : [
                1.104804515838623,
                1.3856812715530396,
                1.267402172088623
            ],
            "min" : [
                0,
                -1.0377572774887085,
                -0.7267001271247864
            ],
            "type" : "VEC3"
        },
        {
            "bufferView" : 6,
            "componentType" : 5126,
            "count" : 1293,
            "type" : "VEC3"
        },
        {
            "bufferView" : 7,
            "componentType" : 5126,
            "count" : 1293,
            "type" : "VEC2"
        },
        {
            "bufferView" : 8,
            "componentType" : 5123,
            "count" : 1293,
            "normalized" : true,
            "type" : "VEC4"
        },
        {
            "bufferView" : 9,
            "componentType" : 5123,
            "count" : 3804,
            "type" : "SCALAR"
        },
        {
            "bufferView" : 10,
            "componentType" : 5126,
            "count" : 96,
            "max" : [
                1.036902904510498,
                1.1266899108886719,
                1.2485371828079224
            ],
            "min" : [
                0,
                -0.9414336681365967,
                -0.7091845273971558
            ],
            "type" : "VEC3"
        },
        {
            "bufferView" : 11,
            "componentType" : 5126,
            "count" : 96,
            "type" : "VEC3"
        },
        {
            "bufferView" : 12,
            "componentType" : 5126,
            "count" : 96,
            "type" : "VEC2"
        },
        {
            "bufferView" : 13,
            "componentType" : 5123,
            "count" : 96,
            "normalized" : true,
            "type" : "VEC4"
        },
        {
            "bufferView" : 14,
            "componentType" : 5123,
            "count" : 222,
            "type" : "SCALAR"
        },
        {
            "bufferView" : 15,
            "componentType" : 5126,
            "count" : 44,
            "max" : [
                0.7882114052772522,
                1.3856812715530396,
                1.2571510076522827
            ],
            "min" : [
                0,
                -0.6443541646003723,
                -0.7091845273971558
            ],
            "type" : "VEC3"
        },
        {
            "bufferView" : 16,
            "componentType" : 5126,
            "count" : 44,
            "type" : "VEC3"
        },
        {
            "bufferView" : 17,
            "componentType" : 5126,
            "count" : 44,
            "type" : "VEC2"
        },
        {
            "bufferView" : 18,
            "componentType" : 5123,
            "count" : 44,
            "normalized" : true,
            "type" : "VEC4"
        },
        {
            "bufferView" : 19,
            "componentType" : 5123,
            "count" : 84,
            "type" : "SCALAR"
        },
        {
            "bufferView" : 20,
            "componentType" : 5126,
            "count" : 24,
            "max" : [
                1.0120019912719727,
                1.136963129043579,
                1.0656166076660156
            ],
            "min" : [
                0.6666694283485413,
                -0.9712180495262146,
                -0.7267001271247864
            ],
            "type" : "VEC3"
        },
        {
            "bufferView" : 21,
            "componentType" : 5126,
            "count" : 24,
            "type" : "VEC3"
        },
        {
            "bufferView" : 22,
            "componentType" : 5126,
            "count" : 24,
            "type" : "VEC2"
        },
        {
            "bufferView" : 23,
            "componentType" : 5123,
            "count" : 24,
            "normalized" : true,
            "type" : "VEC4"
        },
        {
            "bufferView" : 24,
            "componentType" : 5123,
            "count" : 36,
            "type" : "SCALAR"
        },
        {
            "bufferView" : 25,
            "componentType" : 5126,
            "count" : 1517,
            "max" : [
                1,
                1,
                1
            ],
            "min" : [
                -1,
                -1,
                -1
            ],
            "type" : "VEC3"
        },
        {
            "bufferView" : 26,
            "componentType" : 5126,
            "count" : 1517,
            "type" : "VEC3"
        },
        {
            "bufferView" : 27,
            "componentType" : 5126,
            "count" : 1517,
            "type" : "VEC2"
        },
        {
            "bufferView" : 28,
            "componentType" : 5123,
            "count" : 4788,
            "type" : "SCALAR"
        },
        {
            "bufferView" : 29,
            "componentType" : 5126,
            "count" : 1517,
            "max" : [
                1,
                1,
                1
            ],
            "min" : [
                -1,
                -1,
                -1
            ],
            "type" : "VEC3"
        },
        {
            "bufferView" : 30,
            "componentType" : 5126,
            "count" : 1517,
            "type" : "VEC3"
        },
        {
            "bufferView" : 31,
            "componentType" : 5126,
            "count" : 1517,
            "type" : "VEC2"
        },
        {
            "bufferView" : 32,
            "componentType" : 5123,
            "count" : 4788,
            "type" : "SCALAR"
        }
    ],
    "bufferViews" : [
        {
            "buffer" : 0,
            "byteLength" : 4224,
            "byteOffset" : 0
        },
        {
            "buffer" : 0,
            "byteLength" : 4224,
            "byteOffset" : 4224
        },
        {
            "buffer" : 0,
            "byteLength" : 2816,
            "byteOffset" : 8448
        },
        {
            "buffer" : 0,
            "byteLength" : 2816,
            "byteOffset" : 11264
        },
        {
            "buffer" : 0,
            "byteLength" : 1752,
            "byteOffset" : 14080
        },
        {
            "buffer" : 0,
            "byteLength" : 15516,
            "byteOffset" : 15832
        },
        {
            "buffer" : 0,
            "byteLength" : 15516,
            "byteOffset" : 31348
        },
        {
            "buffer" : 0,
            "byteLength" : 10344,
            "byteOffset" : 46864
        },
        {
            "buffer" : 0,
            "byteLength" : 10344,
            "byteOffset" : 57208
        },
        {
            "buffer" : 0,
            "byteLength" : 7608,
            "byteOffset" : 67552
        },
        {
            "buffer" : 0,
            "byteLength" : 1152,
            "byteOffset" : 75160
        },
        {
            "buffer" : 0,
            "byteLength" : 1152,
            "byteOffset" : 76312
        },
        {
            "buffer" : 0,
            "byteLength" : 768,
            "byteOffset" : 77464
        },
        {
            "buffer" : 0,
            "byteLength" : 768,
            "byteOffset" : 78232
        },
        {
            "buffer" : 0,
            "byteLength" : 444,
            "byteOffset" : 79000
        },
        {
            "buffer" : 0,
            "byteLength" : 528,
            "byteOffset" : 79444
        },
        {
            "buffer" : 0,
            "byteLength" : 528,
            "byteOffset" : 79972
        },
        {
            "buffer" : 0,
            "byteLength" : 352,
            "byteOffset" : 80500
        },
        {
            "buffer" : 0,
            "byteLength" : 352,
            "byteOffset" : 80852
        },
        {
            "buffer" : 0,
            "byteLength" : 168,
            "byteOffset" : 81204
        },
        {
            "buffer" : 0,
            "byteLength" : 288,
            "byteOffset" : 81372
        },
        {
            "buffer" : 0,
            "byteLength" : 288,
            "byteOffset" : 81660
        },
        {
            "buffer" : 0,
            "byteLength" : 192,
            "byteOffset" : 81948
        },
        {
            "buffer" : 0,
            "byteLength" : 192,
            "byteOffset" : 82140
        },
        {
            "buffer" : 0,
            "byteLength" : 72,
            "byteOffset" : 82332
        },
        {
            "buffer" : 0,
            "byteLength" : 18204,
            "byteOffset" : 82404
        },
        {
            "buffer" : 0,
            "byteLength" : 18204,
            "byteOffset" : 100608
        },
        {
            "buffer" : 0,
            "byteLength" : 12136,
            "byteOffset" : 118812
        },
        {
            "buffer" : 0,
            "byteLength" : 9576,
            "byteOffset" : 130948
        },
        {
            "buffer" : 0,
            "byteLength" : 18204,
            "byteOffset" : 140524
        },
        {
            "buffer" : 0,
            "byteLength" : 18204,
            "byteOffset" : 158728
        },
        {
            "buffer" : 0,
            "byteLength" : 12136,
            "byteOffset" : 176932
        },
        {
            "buffer" : 0,
            "byteLength" : 9576,
            "byteOffset" : 189068
        }
    ],
    "buffers" : [
        {
            "byteLength" : 198644,
            "uri" : "data:application/octet-stream;base64,"
        }
    ]
}
