{
    "asset" : {
        "generator" : "Khronos glTF Blender I/O v1.7.33",
        "version" : "2.0"
    },
    "scene" : 0,
    "scenes" : [
        {
            "name" : "Scene",
            "nodes" : [
                0,
                1,
                2,
                3
            ]
        }
    ],
    "nodes" : [
        {
            "mesh" : 0,
            "name" : "group_1",
            "rotation" : [
                0.5,
                -0.5,
                0.5,
                0.4999999701976776
            ],
            "scale" : [
                0.44282639026641846,
                0.44282639026641846,
                0.44282639026641846
            ],
            "translation" : [
                -0.06289154291152954,
                1.8011800050735474,
                0.7672054767608643
            ]
        },
        {
            "mesh" : 1,
            "name" : "group_1.001",
            "rotation" : [
                0.5,
                -0.5,
                0.5,
                0.4999999701976776
            ],
            "scale" : [
                0.44282639026641846,
                0.44282639026641846,
                0.44282639026641846
            ],
            "translation" : [
                0.24004042148590088,
                1.801180124282837,
                0.7672061920166016
            ]
        },
        {
            "mesh" : 2,
            "name" : "group_1.002",
            "rotation" : [
                0.5,
                -0.5,
                0.5,
                0.4999999701976776
            ],
            "scale" : [
                0.44282639026641846,
                0.44282639026641846,
                0.44282639026641846
            ],
            "translation" : [
                -0.001406550407409668,
                1.801180124282837,
                0.767204999923706
            ]
        },
        {
            "mesh" : 3,
            "name" : "Text",
            "rotation" : [
                0.5,
                0.5,
                -0.5,
                0.4999999701976776
            ],
            "scale" : [
                0.6439417004585266,
                0.6439417004585266,
                0.6439417004585266
            ],
            "translation" : [
                0.07726409286260605,
                3.100860118865967,
                2.704148530960083
            ]
        }
    ],
    "materials" : [
        {
            "doubleSided" : true,
            "name" : "Translucent_Glass_Blue",
            "pbrMetallicRoughness" : {
                "baseColorFactor" : [
                    0.29411759972572327,
                    0.4392157196998596,
                    0.6980392336845398,
                    0.5019607543945312
                ],
                "metallicFactor" : 0,
                "roughnessFactor" : 0.5
            }
        },
        {
            "doubleSided" : true,
            "name" : "Material.001",
            "pbrMetallicRoughness" : {
                "baseColorFactor" : [
                    0,
                    0,
                    0,
                    1
                ],
                "metallicFactor" : 0,
                "roughnessFactor" : 0.4000000059604645
            }
        }
    ],
    "meshes" : [
        {
            "name" : "ID5",
            "primitives" : [
                {
                    "attributes" : {
                        "POSITION" : 0,
                        "NORMAL" : 1
                    },
                    "indices" : 2,
                    "material" : 0
                }
            ]
        },
        {
            "name" : "ID19",
            "primitives" : [
                {
                    "attributes" : {
                        "POSITION" : 3,
                        "NORMAL" : 4
                    },
                    "indices" : 5,
                    "material" : 0
                }
            ]
        },
        {
            "name" : "ID27",
            "primitives" : [
                {
                    "attributes" : {
                        "POSITION" : 6,
                        "NORMAL" : 7
                    },
                    "indices" : 8,
                    "material" : 0
                }
            ]
        },
        {
            "name" : "Text",
            "primitives" : [
                {
                    "attributes" : {
                        "POSITION" : 9,
                        "NORMAL" : 10,
                        "TEXCOORD_0" : 11
                    },
                    "indices" : 12,
                    "material" : 1
                }
            ]
        }
    ],
    "accessors" : [
        {
            "bufferView" : 0,
            "componentType" : 5126,
            "count" : 6356,
            "max" : [
                1.4074815511703491,
                0.6151250600814819,
                1.4074790477752686
            ],
            "min" : [
                -1.4074786901474,
                -0.7923554182052612,
                -1.4074811935424805
            ],
            "type" : "VEC3"
        },
        {
            "bufferView" : 1,
            "componentType" : 5126,
            "count" : 6356,
            "type" : "VEC3"
        },
        {
            "bufferView" : 2,
            "componentType" : 5123,
            "count" : 31800,
            "type" : "SCALAR"
        },
        {
            "bufferView" : 3,
            "componentType" : 5126,
            "count" : 800,
            "max" : [
                1.8011808395385742,
                0.11810989677906036,
                1.8011800050735474
            ],
            "min" : [
                -1.8011810779571533,
                -0.11811061203479767,
                -1.8011819124221802
            ],
            "type" : "VEC3"
        },
        {
            "bufferView" : 4,
            "componentType" : 5126,
            "count" : 800,
            "type" : "VEC3"
        },
        {
            "bufferView" : 5,
            "componentType" : 5123,
            "count" : 3600,
            "type" : "SCALAR"
        },
        {
            "bufferView" : 6,
            "componentType" : 5126,
            "count" : 5402,
            "max" : [
                1.1220495700836182,
                0.4586957097053528,
                1.1220463514328003
            ],
            "min" : [
                -1.122044563293457,
                -0.6633512377738953,
                -1.122047781944275
            ],
            "type" : "VEC3"
        },
        {
            "bufferView" : 7,
            "componentType" : 5126,
            "count" : 5402,
            "type" : "VEC3"
        },
        {
            "bufferView" : 8,
            "componentType" : 5123,
            "count" : 30600,
            "type" : "SCALAR"
        },
        {
            "bufferView" : 9,
            "componentType" : 5126,
            "count" : 6074,
            "max" : [
                5.634000778198242,
                0.059999994933605194,
                0.009000000543892384
            ],
            "min" : [
                0.04800000041723251,
                -0.059999994933605194,
                -0.6910000443458557
            ],
            "type" : "VEC3"
        },
        {
            "bufferView" : 10,
            "componentType" : 5126,
            "count" : 6074,
            "type" : "VEC3"
        },
        {
            "bufferView" : 11,
            "componentType" : 5126,
            "count" : 6074,
            "type" : "VEC2"
        },
        {
            "bufferView" : 12,
            "componentType" : 5123,
            "count" : 11016,
            "type" : "SCALAR"
        }
    ],
    "bufferViews" : [
        {
            "buffer" : 0,
            "byteLength" : 76272,
            "byteOffset" : 0
        },
        {
            "buffer" : 0,
            "byteLength" : 76272,
            "byteOffset" : 76272
        },
        {
            "buffer" : 0,
            "byteLength" : 63600,
            "byteOffset" : 152544
        },
        {
            "buffer" : 0,
            "byteLength" : 9600,
            "byteOffset" : 216144
        },
        {
            "buffer" : 0,
            "byteLength" : 9600,
            "byteOffset" : 225744
        },
        {
            "buffer" : 0,
            "byteLength" : 7200,
            "byteOffset" : 235344
        },
        {
            "buffer" : 0,
            "byteLength" : 64824,
            "byteOffset" : 242544
        },
        {
            "buffer" : 0,
            "byteLength" : 64824,
            "byteOffset" : 307368
        },
        {
            "buffer" : 0,
            "byteLength" : 61200,
            "byteOffset" : 372192
        },
        {
            "buffer" : 0,
            "byteLength" : 72888,
            "byteOffset" : 433392
        },
        {
            "buffer" : 0,
            "byteLength" : 72888,
            "byteOffset" : 506280
        },
        {
            "buffer" : 0,
            "byteLength" : 48592,
            "byteOffset" : 579168
        },
        {
            "buffer" : 0,
            "byteLength" : 22032,
            "byteOffset" : 627760
        }
    ],
    "buffers" : [
        {
            "byteLength" : 649792,
            "uri" : "data:application/octet-stream;base64,"
        }
    ]
}
