{
    "asset" : {
        "generator" : "Khronos glTF Blender I/O v1.7.33",
        "version" : "2.0"
    },
    "scene" : 0,
    "scenes" : [
        {
            "name" : "Scene",
            "nodes" : [
                0
            ]
        }
    ],
    "nodes" : [
        {
            "mesh" : 0,
            "name" : "CROW",
            "rotation" : [
                0.7071068286895752,
                0,
                0,
                0.7071067094802856
            ],
            "scale" : [
                2.142514705657959,
                2.142514705657959,
                2.142514705657959
            ]
        }
    ],
    "materials" : [
        {
            "doubleSided" : true,
            "name" : "Material.001",
            "pbrMetallicRoughness" : {
                "baseColorFactor" : [
                    0,
                    0,
                    0,
                    1
                ],
                "metallicFactor" : 0,
                "roughnessFactor" : 0.4000000059604645
            }
        },
        {
            "doubleSided" : true,
            "name" : "Material.002",
            "pbrMetallicRoughness" : {
                "baseColorFactor" : [
                    1,
                    0.8522540926933289,
                    0.8790536522865295,
                    1
                ],
                "metallicFactor" : 0,
                "roughnessFactor" : 0.4000000059604645
            }
        },
        {
            "doubleSided" : true,
            "name" : "Material.003",
            "pbrMetallicRoughness" : {
                "baseColorFactor" : [
                    0.014669498428702354,
                    0.014669498428702354,
                    0.014669498428702354,
                    1
                ],
                "metallicFactor" : 0,
                "roughnessFactor" : 0.4000000059604645
            }
        }
    ],
    "meshes" : [
        {
            "name" : "CROW",
            "primitives" : [
                {
                    "attributes" : {
                        "POSITION" : 0,
                        "NORMAL" : 1,
                        "TEXCOORD_0" : 2
                    },
                    "indices" : 3,
                    "material" : 0
                },
                {
                    "attributes" : {
                        "POSITION" : 4,
                        "NORMAL" : 5,
                        "TEXCOORD_0" : 6
                    },
                    "indices" : 7,
                    "material" : 1
                },
                {
                    "attributes" : {
                        "POSITION" : 8,
                        "NORMAL" : 9,
                        "TEXCOORD_0" : 10
                    },
                    "indices" : 11,
                    "material" : 2
                }
            ]
        }
    ],
    "accessors" : [
        {
            "bufferView" : 0,
            "componentType" : 5126,
            "count" : 3109,
            "max" : [
                0.06992270052433014,
                0.15828299522399902,
                0.014317899942398071
            ],
            "min" : [
                -0.06992270052433014,
                -0.29004642367362976,
                -0.24561600387096405
            ],
            "type" : "VEC3"
        },
        {
            "bufferView" : 1,
            "componentType" : 5126,
            "count" : 3109,
            "type" : "VEC3"
        },
        {
            "bufferView" : 2,
            "componentType" : 5126,
            "count" : 3109,
            "type" : "VEC2"
        },
        {
            "bufferView" : 3,
            "componentType" : 5123,
            "count" : 18222,
            "type" : "SCALAR"
        },
        {
            "bufferView" : 4,
            "componentType" : 5126,
            "count" : 42,
            "max" : [
                0.018778899684548378,
                0.10342700034379959,
                -0.21756300330162048
            ],
            "min" : [
                -0.018778899684548378,
                0.10080700367689133,
                -0.22081199288368225
            ],
            "type" : "VEC3"
        },
        {
            "bufferView" : 5,
            "componentType" : 5126,
            "count" : 42,
            "type" : "VEC3"
        },
        {
            "bufferView" : 6,
            "componentType" : 5126,
            "count" : 42,
            "type" : "VEC2"
        },
        {
            "bufferView" : 7,
            "componentType" : 5123,
            "count" : 120,
            "type" : "SCALAR"
        },
        {
            "bufferView" : 8,
            "componentType" : 5126,
            "count" : 50,
            "max" : [
                0.03319299966096878,
                0.09393519908189774,
                -0.17095200717449188
            ],
            "min" : [
                -0.03319299966096878,
                0.009362920187413692,
                -0.22858600318431854
            ],
            "type" : "VEC3"
        },
        {
            "bufferView" : 9,
            "componentType" : 5126,
            "count" : 50,
            "type" : "VEC3"
        },
        {
            "bufferView" : 10,
            "componentType" : 5126,
            "count" : 50,
            "type" : "VEC2"
        },
        {
            "bufferView" : 11,
            "componentType" : 5123,
            "count" : 150,
            "type" : "SCALAR"
        }
    ],
    "bufferViews" : [
        {
            "buffer" : 0,
            "byteLength" : 37308,
            "byteOffset" : 0
        },
        {
            "buffer" : 0,
            "byteLength" : 37308,
            "byteOffset" : 37308
        },
        {
            "buffer" : 0,
            "byteLength" : 24872,
            "byteOffset" : 74616
        },
        {
            "buffer" : 0,
            "byteLength" : 36444,
            "byteOffset" : 99488
        },
        {
            "buffer" : 0,
            "byteLength" : 504,
            "byteOffset" : 135932
        },
        {
            "buffer" : 0,
            "byteLength" : 504,
            "byteOffset" : 136436
        },
        {
            "buffer" : 0,
            "byteLength" : 336,
            "byteOffset" : 136940
        },
        {
            "buffer" : 0,
            "byteLength" : 240,
            "byteOffset" : 137276
        },
        {
            "buffer" : 0,
            "byteLength" : 600,
            "byteOffset" : 137516
        },
        {
            "buffer" : 0,
            "byteLength" : 600,
            "byteOffset" : 138116
        },
        {
            "buffer" : 0,
            "byteLength" : 400,
            "byteOffset" : 138716
        },
        {
            "buffer" : 0,
            "byteLength" : 300,
            "byteOffset" : 139116
        }
    ],
    "buffers" : [
        {
            "byteLength" : 139416,
            "uri" : "data:application/octet-stream;base64,"
        }
    ]
}
