{
    "asset" : {
        "generator" : "Khronos glTF Blender I/O v1.7.33",
        "version" : "2.0"
    },
    "scene" : 0,
    "scenes" : [
        {
            "name" : "Scene",
            "nodes" : [
                0
            ]
        }
    ],
    "nodes" : [
        {
            "mesh" : 0,
            "name" : "12235_Bird_v1_l3",
            "rotation" : [
                0,
                -0.7071068286895752,
                0,
                -0.7071068286895752
            ],
            "scale" : [
                0.1320778727531433,
                0.1320778727531433,
                0.1320778727531433
            ]
        }
    ],
    "materials" : [
        {
            "doubleSided" : true,
            "name" : "Material.001",
            "pbrMetallicRoughness" : {
                "baseColorFactor" : [
                    0.3799309730529785,
                    0.46621331572532654,
                    0.5814635157585144,
                    1
                ],
                "metallicFactor" : 0,
                "roughnessFactor" : 0.4000000059604645
            }
        },
        {
            "doubleSided" : true,
            "name" : "Material.002",
            "pbrMetallicRoughness" : {
                "baseColorFactor" : [
                    0.013410423882305622,
                    0.013410423882305622,
                    0.013410423882305622,
                    1
                ],
                "metallicFactor" : 0,
                "roughnessFactor" : 0.4000000059604645
            }
        },
        {
            "doubleSided" : true,
            "name" : "Material.004",
            "pbrMetallicRoughness" : {
                "baseColorFactor" : [
                    0.8000000715255737,
                    0.4719614088535309,
                    0.027200236916542053,
                    1
                ],
                "metallicFactor" : 0,
                "roughnessFactor" : 0.4000000059604645
            }
        },
        {
            "doubleSided" : true,
            "name" : "Material.005",
            "pbrMetallicRoughness" : {
                "baseColorFactor" : [
                    0.8000000715255737,
                    0.6421557068824768,
                    0.011840088292956352,
                    1
                ],
                "metallicFactor" : 0,
                "roughnessFactor" : 0.4000000059604645
            }
        },
        {
            "doubleSided" : true,
            "name" : "Material.006",
            "pbrMetallicRoughness" : {
                "baseColorFactor" : [
                    0.7873985171318054,
                    0.16674695909023285,
                    0.07637659460306168,
                    1
                ],
                "metallicFactor" : 0,
                "roughnessFactor" : 0.4000000059604645
            }
        },
        {
            "doubleSided" : true,
            "name" : "Material.007",
            "pbrMetallicRoughness" : {
                "baseColorFactor" : [
                    0.252942830324173,
                    0.03326289728283882,
                    0.010534567758440971,
                    1
                ],
                "metallicFactor" : 0,
                "roughnessFactor" : 0.4000000059604645
            }
        }
    ],
    "meshes" : [
        {
            "name" : "12235_Bird_v1_l3",
            "primitives" : [
                {
                    "attributes" : {
                        "POSITION" : 0,
                        "NORMAL" : 1,
                        "TEXCOORD_0" : 2
                    },
                    "indices" : 3,
                    "material" : 0
                },
                {
                    "attributes" : {
                        "POSITION" : 4,
                        "NORMAL" : 5,
                        "TEXCOORD_0" : 6
                    },
                    "indices" : 7,
                    "material" : 1
                },
                {
                    "attributes" : {
                        "POSITION" : 8,
                        "NORMAL" : 9,
                        "TEXCOORD_0" : 10
                    },
                    "indices" : 11,
                    "material" : 2
                },
                {
                    "attributes" : {
                        "POSITION" : 12,
                        "NORMAL" : 13,
                        "TEXCOORD_0" : 14
                    },
                    "indices" : 15,
                    "material" : 3
                },
                {
                    "attributes" : {
                        "POSITION" : 16,
                        "NORMAL" : 17,
                        "TEXCOORD_0" : 18
                    },
                    "indices" : 19,
                    "material" : 4
                },
                {
                    "attributes" : {
                        "POSITION" : 20,
                        "NORMAL" : 21,
                        "TEXCOORD_0" : 22
                    },
                    "indices" : 23,
                    "material" : 5
                }
            ]
        }
    ],
    "accessors" : [
        {
            "bufferView" : 0,
            "componentType" : 5126,
            "count" : 7467,
            "max" : [
                3.253000020980835,
                11.680800437927246,
                10.75160026550293
            ],
            "min" : [
                -3.2973999977111816,
                2.326200008392334,
                -12.766799926757812
            ],
            "type" : "VEC3"
        },
        {
            "bufferView" : 1,
            "componentType" : 5126,
            "count" : 7467,
            "type" : "VEC3"
        },
        {
            "bufferView" : 2,
            "componentType" : 5126,
            "count" : 7467,
            "type" : "VEC2"
        },
        {
            "bufferView" : 3,
            "componentType" : 5123,
            "count" : 40578,
            "type" : "SCALAR"
        },
        {
            "bufferView" : 4,
            "componentType" : 5126,
            "count" : 1680,
            "max" : [
                1.6464999914169312,
                11.64430046081543,
                12.044400215148926
            ],
            "min" : [
                -2.947499990463257,
                0.6107000112533569,
                0.7681000232696533
            ],
            "type" : "VEC3"
        },
        {
            "bufferView" : 5,
            "componentType" : 5126,
            "count" : 1680,
            "type" : "VEC3"
        },
        {
            "bufferView" : 6,
            "componentType" : 5126,
            "count" : 1680,
            "type" : "VEC2"
        },
        {
            "bufferView" : 7,
            "componentType" : 5123,
            "count" : 7890,
            "type" : "SCALAR"
        },
        {
            "bufferView" : 8,
            "componentType" : 5126,
            "count" : 10242,
            "max" : [
                3.1345999240875244,
                11.75409984588623,
                9.70989990234375
            ],
            "min" : [
                -3.309999942779541,
                0.09309999644756317,
                0.9925000071525574
            ],
            "type" : "VEC3"
        },
        {
            "bufferView" : 9,
            "componentType" : 5126,
            "count" : 10242,
            "type" : "VEC3"
        },
        {
            "bufferView" : 10,
            "componentType" : 5126,
            "count" : 10242,
            "type" : "VEC2"
        },
        {
            "bufferView" : 11,
            "componentType" : 5123,
            "count" : 54840,
            "type" : "SCALAR"
        },
        {
            "bufferView" : 12,
            "componentType" : 5126,
            "count" : 1099,
            "max" : [
                0.4023999869823456,
                10.702300071716309,
                12.207799911499023
            ],
            "min" : [
                -0.4023999869823456,
                8.999300003051758,
                10.555299758911133
            ],
            "type" : "VEC3"
        },
        {
            "bufferView" : 13,
            "componentType" : 5126,
            "count" : 1099,
            "type" : "VEC3"
        },
        {
            "bufferView" : 14,
            "componentType" : 5126,
            "count" : 1099,
            "type" : "VEC2"
        },
        {
            "bufferView" : 15,
            "componentType" : 5123,
            "count" : 5700,
            "type" : "SCALAR"
        },
        {
            "bufferView" : 16,
            "componentType" : 5126,
            "count" : 10770,
            "max" : [
                3.2973999977111816,
                13.507599830627441,
                10.985400199890137
            ],
            "min" : [
                -3.288800001144409,
                2.467400074005127,
                -12.77810001373291
            ],
            "type" : "VEC3"
        },
        {
            "bufferView" : 17,
            "componentType" : 5126,
            "count" : 10770,
            "type" : "VEC3"
        },
        {
            "bufferView" : 18,
            "componentType" : 5126,
            "count" : 10770,
            "type" : "VEC2"
        },
        {
            "bufferView" : 19,
            "componentType" : 5123,
            "count" : 60486,
            "type" : "SCALAR"
        },
        {
            "bufferView" : 20,
            "componentType" : 5126,
            "count" : 1802,
            "max" : [
                4.410399913787842,
                2.43149995803833,
                4.55049991607666
            ],
            "min" : [
                -5.128399848937988,
                0.848800003528595,
                2.9667000770568848
            ],
            "type" : "VEC3"
        },
        {
            "bufferView" : 21,
            "componentType" : 5126,
            "count" : 1802,
            "type" : "VEC3"
        },
        {
            "bufferView" : 22,
            "componentType" : 5126,
            "count" : 1802,
            "type" : "VEC2"
        },
        {
            "bufferView" : 23,
            "componentType" : 5123,
            "count" : 8142,
            "type" : "SCALAR"
        }
    ],
    "bufferViews" : [
        {
            "buffer" : 0,
            "byteLength" : 89604,
            "byteOffset" : 0
        },
        {
            "buffer" : 0,
            "byteLength" : 89604,
            "byteOffset" : 89604
        },
        {
            "buffer" : 0,
            "byteLength" : 59736,
            "byteOffset" : 179208
        },
        {
            "buffer" : 0,
            "byteLength" : 81156,
            "byteOffset" : 238944
        },
        {
            "buffer" : 0,
            "byteLength" : 20160,
            "byteOffset" : 320100
        },
        {
            "buffer" : 0,
            "byteLength" : 20160,
            "byteOffset" : 340260
        },
        {
            "buffer" : 0,
            "byteLength" : 13440,
            "byteOffset" : 360420
        },
        {
            "buffer" : 0,
            "byteLength" : 15780,
            "byteOffset" : 373860
        },
        {
            "buffer" : 0,
            "byteLength" : 122904,
            "byteOffset" : 389640
        },
        {
            "buffer" : 0,
            "byteLength" : 122904,
            "byteOffset" : 512544
        },
        {
            "buffer" : 0,
            "byteLength" : 81936,
            "byteOffset" : 635448
        },
        {
            "buffer" : 0,
            "byteLength" : 109680,
            "byteOffset" : 717384
        },
        {
            "buffer" : 0,
            "byteLength" : 13188,
            "byteOffset" : 827064
        },
        {
            "buffer" : 0,
            "byteLength" : 13188,
            "byteOffset" : 840252
        },
        {
            "buffer" : 0,
            "byteLength" : 8792,
            "byteOffset" : 853440
        },
        {
            "buffer" : 0,
            "byteLength" : 11400,
            "byteOffset" : 862232
        },
        {
            "buffer" : 0,
            "byteLength" : 129240,
            "byteOffset" : 873632
        },
        {
            "buffer" : 0,
            "byteLength" : 129240,
            "byteOffset" : 1002872
        },
        {
            "buffer" : 0,
            "byteLength" : 86160,
            "byteOffset" : 1132112
        },
        {
            "buffer" : 0,
            "byteLength" : 120972,
            "byteOffset" : 1218272
        },
        {
            "buffer" : 0,
            "byteLength" : 21624,
            "byteOffset" : 1339244
        },
        {
            "buffer" : 0,
            "byteLength" : 21624,
            "byteOffset" : 1360868
        },
        {
            "buffer" : 0,
            "byteLength" : 14416,
            "byteOffset" : 1382492
        },
        {
            "buffer" : 0,
            "byteLength" : 16284,
            "byteOffset" : 1396908
        }
    ],
    "buffers" : [
        {
            "byteLength" : 1413192,
            "uri" : "data:application/octet-stream;base64,"
        }
    ]
}
