{
    "asset" : {
        "generator" : "Khronos glTF Blender I/O v1.7.33",
        "version" : "2.0"
    },
    "scene" : 0,
    "scenes" : [
        {
            "name" : "Scene",
            "nodes" : [
                0
            ]
        }
    ],
    "nodes" : [
        {
            "mesh" : 0,
            "name" : "Cube",
            "scale" : [
                7.5,
                15,
                7.5
            ]
        }
    ],
    "materials" : [
        {
            "doubleSided" : true,
            "name" : "Material",
            "pbrMetallicRoughness" : {
                "baseColorFactor" : [
                    1,
                    0.4091147780418396,
                    0.14849260449409485,
                    1
                ],
                "metallicFactor" : 0,
                "roughnessFactor" : 0.4000000059604645
            }
        }
    ],
    "meshes" : [
        {
            "name" : "Cube",
            "primitives" : [
                {
                    "attributes" : {
                        "POSITION" : 0,
                        "NORMAL" : 1,
                        "TEXCOORD_0" : 2
                    },
                    "indices" : 3,
                    "material" : 0
                }
            ]
        }
    ],
    "accessors" : [
        {
            "bufferView" : 0,
            "componentType" : 5126,
            "count" : 1457,
            "max" : [
                0.399393767118454,
                0.5125944018363953,
                0.3033914864063263
            ],
            "min" : [
                -0.399393767118454,
                -0.14521369338035583,
                -0.3033914864063263
            ],
            "type" : "VEC3"
        },
        {
            "bufferView" : 1,
            "componentType" : 5126,
            "count" : 1457,
            "type" : "VEC3"
        },
        {
            "bufferView" : 2,
            "componentType" : 5126,
            "count" : 1457,
            "type" : "VEC2"
        },
        {
            "bufferView" : 3,
            "componentType" : 5123,
            "count" : 1512,
            "type" : "SCALAR"
        }
    ],
    "bufferViews" : [
        {
            "buffer" : 0,
            "byteLength" : 17484,
            "byteOffset" : 0
        },
        {
            "buffer" : 0,
            "byteLength" : 17484,
            "byteOffset" : 17484
        },
        {
            "buffer" : 0,
            "byteLength" : 11656,
            "byteOffset" : 34968
        },
        {
            "buffer" : 0,
            "byteLength" : 3024,
            "byteOffset" : 46624
        }
    ],
    "buffers" : [
        {
            "byteLength" : 49648,
            "uri" : "data:application/octet-stream;base64,"
        }
    ]
}
