{
    "asset" : {
        "generator" : "Khronos glTF Blender I/O v1.7.33",
        "version" : "2.0"
    },
    "scene" : 0,
    "scenes" : [
        {
            "name" : "Scene",
            "nodes" : [
                0,
                1,
                2,
                3,
                4,
                5,
                6,
                7
            ]
        }
    ],
    "nodes" : [
        {
            "mesh" : 0,
            "name" : "Cube",
            "scale" : [
                0.17321684956550598,
                0.17321684956550598,
                0.17321684956550598
            ],
            "translation" : [
                0.014010187238454819,
                0.06636762619018555,
                0.2077547311782837
            ]
        },
        {
            "mesh" : 1,
            "name" : "Cube.001",
            "scale" : [
                0.06426619738340378,
                0.04958103969693184,
                0.7243488430976868
            ],
            "translation" : [
                0.014010187238454819,
                0.27951163053512573,
                0.2077547311782837
            ]
        },
        {
            "mesh" : 2,
            "name" : "Cylinder.008",
            "rotation" : [
                -0.01378727424889803,
                0.7099361419677734,
                -0.0012418931582942605,
                0.7041299939155579
            ],
            "scale" : [
                -0.03475544601678848,
                0.01380494236946106,
                0.0020330671686679125
            ],
            "translation" : [
                0.008143042214214802,
                0.42684048414230347,
                0.7803572416305542
            ]
        },
        {
            "mesh" : 3,
            "name" : "Cylinder.001",
            "rotation" : [
                -0.01378727424889803,
                0.7099361419677734,
                -0.0012418931582942605,
                0.7041299939155579
            ],
            "scale" : [
                -0.03475544601678848,
                0.01380494236946106,
                0.0020330671686679125
            ],
            "translation" : [
                0.008143042214214802,
                0.42684048414230347,
                -0.36468249559402466
            ]
        },
        {
            "mesh" : 4,
            "name" : "Text",
            "rotation" : [
                0.5,
                0.5,
                -0.5,
                0.4999999701976776
            ],
            "scale" : [
                0.11547791957855225,
                0.11547791957855225,
                0.11547791957855225
            ],
            "translation" : [
                0.04893588274717331,
                0.7476121187210083,
                0.8851553797721863
            ]
        },
        {
            "mesh" : 5,
            "name" : "Text.001",
            "rotation" : [
                0.5,
                0.5,
                -0.5,
                0.4999999701976776
            ],
            "scale" : [
                0.11547791957855225,
                0.11547791957855225,
                0.11547791957855225
            ],
            "translation" : [
                0.04893588274717331,
                0.7476121187210083,
                -0.24956375360488892
            ]
        },
        {
            "mesh" : 6,
            "name" : "Text.002",
            "rotation" : [
                0.5,
                0.5,
                -0.5,
                0.4999999701976776
            ],
            "scale" : [
                0.11547791957855225,
                0.11547791957855225,
                0.11547791957855225
            ],
            "translation" : [
                0.024511417374014854,
                -0.10580995678901672,
                -0.011117041110992432
            ]
        },
        {
            "mesh" : 7,
            "name" : "Text.003",
            "rotation" : [
                0.5,
                0.5,
                -0.5,
                0.4999999701976776
            ],
            "scale" : [
                0.11100772023200989,
                0.11100772023200989,
                0.11100772023200989
            ],
            "translation" : [
                0.014010187238454819,
                1.144547462463379,
                0.6331013441085815
            ]
        }
    ],
    "materials" : [
        {
            "doubleSided" : true,
            "name" : "Material",
            "pbrMetallicRoughness" : {
                "baseColorFactor" : [
                    0.008376442827284336,
                    0.8000000715255737,
                    0.04727282002568245,
                    1
                ],
                "metallicFactor" : 0,
                "roughnessFactor" : 0.4000000059604645
            }
        },
        {
            "doubleSided" : true,
            "name" : "Material.002",
            "pbrMetallicRoughness" : {
                "baseColorFactor" : [
                    0.6497827768325806,
                    0.8000000715255737,
                    0.014798684976994991,
                    1
                ],
                "metallicFactor" : 0,
                "roughnessFactor" : 0.4000000059604645
            }
        },
        {
            "doubleSided" : true,
            "name" : "Material.029",
            "pbrMetallicRoughness" : {
                "baseColorFactor" : [
                    0.5488519072532654,
                    0.008980941958725452,
                    0.006390058435499668,
                    1
                ],
                "metallicFactor" : 0,
                "roughnessFactor" : 0.5
            }
        },
        {
            "doubleSided" : true,
            "name" : "Material.001",
            "pbrMetallicRoughness" : {
                "baseColorFactor" : [
                    0.003337554167956114,
                    0.41505539417266846,
                    0.5488519072532654,
                    1
                ],
                "metallicFactor" : 0,
                "roughnessFactor" : 0.5
            }
        },
        {
            "doubleSided" : true,
            "name" : "Material.003",
            "pbrMetallicRoughness" : {
                "baseColorFactor" : [
                    0.8000000715255737,
                    0.01948198303580284,
                    0.016456076875329018,
                    1
                ],
                "metallicFactor" : 0,
                "roughnessFactor" : 0.4000000059604645
            }
        },
        {
            "doubleSided" : true,
            "name" : "Material.004",
            "pbrMetallicRoughness" : {
                "baseColorFactor" : [
                    0.036704640835523605,
                    0.7019696235656738,
                    0.8000000715255737,
                    1
                ],
                "metallicFactor" : 0,
                "roughnessFactor" : 0.4000000059604645
            }
        },
        {
            "doubleSided" : true,
            "name" : "Material.005",
            "pbrMetallicRoughness" : {
                "baseColorFactor" : [
                    0.0076283784583210945,
                    0.8000000715255737,
                    0.0076972744427621365,
                    1
                ],
                "metallicFactor" : 0,
                "roughnessFactor" : 0.4000000059604645
            }
        },
        {
            "doubleSided" : true,
            "name" : "Material.006",
            "pbrMetallicRoughness" : {
                "baseColorFactor" : [
                    0.0016551729058846831,
                    0.0016551729058846831,
                    0.0016551729058846831,
                    1
                ],
                "metallicFactor" : 0,
                "roughnessFactor" : 0.4000000059604645
            }
        }
    ],
    "meshes" : [
        {
            "name" : "Cube",
            "primitives" : [
                {
                    "attributes" : {
                        "POSITION" : 0,
                        "NORMAL" : 1,
                        "TEXCOORD_0" : 2
                    },
                    "indices" : 3,
                    "material" : 0
                }
            ]
        },
        {
            "name" : "Cube.001",
            "primitives" : [
                {
                    "attributes" : {
                        "POSITION" : 4,
                        "NORMAL" : 5,
                        "TEXCOORD_0" : 6
                    },
                    "indices" : 7,
                    "material" : 1
                }
            ]
        },
        {
            "name" : "Cylinder.008",
            "primitives" : [
                {
                    "attributes" : {
                        "POSITION" : 8,
                        "NORMAL" : 9
                    },
                    "indices" : 10,
                    "material" : 2
                }
            ]
        },
        {
            "name" : "Cylinder.002",
            "primitives" : [
                {
                    "attributes" : {
                        "POSITION" : 11,
                        "NORMAL" : 12
                    },
                    "indices" : 10,
                    "material" : 3
                }
            ]
        },
        {
            "name" : "Text",
            "primitives" : [
                {
                    "attributes" : {
                        "POSITION" : 13,
                        "NORMAL" : 14,
                        "TEXCOORD_0" : 15
                    },
                    "indices" : 16,
                    "material" : 4
                }
            ]
        },
        {
            "name" : "Text.002",
            "primitives" : [
                {
                    "attributes" : {
                        "POSITION" : 17,
                        "NORMAL" : 18,
                        "TEXCOORD_0" : 19
                    },
                    "indices" : 20,
                    "material" : 5
                }
            ]
        },
        {
            "name" : "Text.003",
            "primitives" : [
                {
                    "attributes" : {
                        "POSITION" : 21,
                        "NORMAL" : 22,
                        "TEXCOORD_0" : 23
                    },
                    "indices" : 24,
                    "material" : 6
                }
            ]
        },
        {
            "name" : "Text.004",
            "primitives" : [
                {
                    "attributes" : {
                        "POSITION" : 25,
                        "NORMAL" : 26,
                        "TEXCOORD_0" : 27
                    },
                    "indices" : 28,
                    "material" : 7
                }
            ]
        }
    ],
    "accessors" : [
        {
            "bufferView" : 0,
            "componentType" : 5126,
            "count" : 24,
            "max" : [
                1,
                1,
                1
            ],
            "min" : [
                -1,
                -1,
                -1
            ],
            "type" : "VEC3"
        },
        {
            "bufferView" : 1,
            "componentType" : 5126,
            "count" : 24,
            "type" : "VEC3"
        },
        {
            "bufferView" : 2,
            "componentType" : 5126,
            "count" : 24,
            "type" : "VEC2"
        },
        {
            "bufferView" : 3,
            "componentType" : 5123,
            "count" : 36,
            "type" : "SCALAR"
        },
        {
            "bufferView" : 4,
            "componentType" : 5126,
            "count" : 24,
            "max" : [
                1,
                1,
                1
            ],
            "min" : [
                -1,
                -1,
                -1
            ],
            "type" : "VEC3"
        },
        {
            "bufferView" : 5,
            "componentType" : 5126,
            "count" : 24,
            "type" : "VEC3"
        },
        {
            "bufferView" : 6,
            "componentType" : 5126,
            "count" : 24,
            "type" : "VEC2"
        },
        {
            "bufferView" : 7,
            "componentType" : 5123,
            "count" : 36,
            "type" : "SCALAR"
        },
        {
            "bufferView" : 8,
            "componentType" : 5126,
            "count" : 200,
            "max" : [
                2.3325512409210205,
                20.935077667236328,
                24.224950790405273
            ],
            "min" : [
                -2.3222715854644775,
                -6.728348255157471,
                -2.3222711086273193
            ],
            "type" : "VEC3"
        },
        {
            "bufferView" : 9,
            "componentType" : 5126,
            "count" : 200,
            "type" : "VEC3"
        },
        {
            "bufferView" : 10,
            "componentType" : 5123,
            "count" : 1188,
            "type" : "SCALAR"
        },
        {
            "bufferView" : 11,
            "componentType" : 5126,
            "count" : 200,
            "max" : [
                2.3325512409210205,
                20.935077667236328,
                24.224950790405273
            ],
            "min" : [
                -2.3222715854644775,
                -6.728348255157471,
                -2.3222711086273193
            ],
            "type" : "VEC3"
        },
        {
            "bufferView" : 12,
            "componentType" : 5126,
            "count" : 200,
            "type" : "VEC3"
        },
        {
            "bufferView" : 13,
            "componentType" : 5126,
            "count" : 2268,
            "max" : [
                2.2800002098083496,
                0.07999999076128006,
                0.009000000543892384
            ],
            "min" : [
                0.07500000298023224,
                -0.07999999076128006,
                -0.6914074420928955
            ],
            "type" : "VEC3"
        },
        {
            "bufferView" : 14,
            "componentType" : 5126,
            "count" : 2268,
            "type" : "VEC3"
        },
        {
            "bufferView" : 15,
            "componentType" : 5126,
            "count" : 2268,
            "type" : "VEC2"
        },
        {
            "bufferView" : 16,
            "componentType" : 5123,
            "count" : 4032,
            "type" : "SCALAR"
        },
        {
            "bufferView" : 17,
            "componentType" : 5126,
            "count" : 2432,
            "max" : [
                1.9200000762939453,
                0.07999999076128006,
                0.009000000543892384
            ],
            "min" : [
                0.07400000095367432,
                -0.07999999076128006,
                -0.6820000410079956
            ],
            "type" : "VEC3"
        },
        {
            "bufferView" : 18,
            "componentType" : 5126,
            "count" : 2432,
            "type" : "VEC3"
        },
        {
            "bufferView" : 19,
            "componentType" : 5126,
            "count" : 2432,
            "type" : "VEC2"
        },
        {
            "bufferView" : 20,
            "componentType" : 5123,
            "count" : 4236,
            "type" : "SCALAR"
        },
        {
            "bufferView" : 21,
            "componentType" : 5126,
            "count" : 2510,
            "max" : [
                3.233999729156494,
                0.07999999076128006,
                0.009000000543892384
            ],
            "min" : [
                0.07600000500679016,
                -0.07999999076128006,
                -0.6820000410079956
            ],
            "type" : "VEC3"
        },
        {
            "bufferView" : 22,
            "componentType" : 5126,
            "count" : 2510,
            "type" : "VEC3"
        },
        {
            "bufferView" : 23,
            "componentType" : 5126,
            "count" : 2510,
            "type" : "VEC2"
        },
        {
            "bufferView" : 24,
            "componentType" : 5123,
            "count" : 4548,
            "type" : "SCALAR"
        },
        {
            "bufferView" : 25,
            "componentType" : 5126,
            "count" : 4821,
            "max" : [
                8.959151268005371,
                0.14999999105930328,
                0.029037486761808395
            ],
            "min" : [
                0.05600002408027649,
                -0.14999999105930328,
                -0.7110365629196167
            ],
            "type" : "VEC3"
        },
        {
            "bufferView" : 26,
            "componentType" : 5126,
            "count" : 4821,
            "type" : "VEC3"
        },
        {
            "bufferView" : 27,
            "componentType" : 5126,
            "count" : 4821,
            "type" : "VEC2"
        },
        {
            "bufferView" : 28,
            "componentType" : 5123,
            "count" : 8568,
            "type" : "SCALAR"
        }
    ],
    "bufferViews" : [
        {
            "buffer" : 0,
            "byteLength" : 288,
            "byteOffset" : 0
        },
        {
            "buffer" : 0,
            "byteLength" : 288,
            "byteOffset" : 288
        },
        {
            "buffer" : 0,
            "byteLength" : 192,
            "byteOffset" : 576
        },
        {
            "buffer" : 0,
            "byteLength" : 72,
            "byteOffset" : 768
        },
        {
            "buffer" : 0,
            "byteLength" : 288,
            "byteOffset" : 840
        },
        {
            "buffer" : 0,
            "byteLength" : 288,
            "byteOffset" : 1128
        },
        {
            "buffer" : 0,
            "byteLength" : 192,
            "byteOffset" : 1416
        },
        {
            "buffer" : 0,
            "byteLength" : 72,
            "byteOffset" : 1608
        },
        {
            "buffer" : 0,
            "byteLength" : 2400,
            "byteOffset" : 1680
        },
        {
            "buffer" : 0,
            "byteLength" : 2400,
            "byteOffset" : 4080
        },
        {
            "buffer" : 0,
            "byteLength" : 2376,
            "byteOffset" : 6480
        },
        {
            "buffer" : 0,
            "byteLength" : 2400,
            "byteOffset" : 8856
        },
        {
            "buffer" : 0,
            "byteLength" : 2400,
            "byteOffset" : 11256
        },
        {
            "buffer" : 0,
            "byteLength" : 27216,
            "byteOffset" : 13656
        },
        {
            "buffer" : 0,
            "byteLength" : 27216,
            "byteOffset" : 40872
        },
        {
            "buffer" : 0,
            "byteLength" : 18144,
            "byteOffset" : 68088
        },
        {
            "buffer" : 0,
            "byteLength" : 8064,
            "byteOffset" : 86232
        },
        {
            "buffer" : 0,
            "byteLength" : 29184,
            "byteOffset" : 94296
        },
        {
            "buffer" : 0,
            "byteLength" : 29184,
            "byteOffset" : 123480
        },
        {
            "buffer" : 0,
            "byteLength" : 19456,
            "byteOffset" : 152664
        },
        {
            "buffer" : 0,
            "byteLength" : 8472,
            "byteOffset" : 172120
        },
        {
            "buffer" : 0,
            "byteLength" : 30120,
            "byteOffset" : 180592
        },
        {
            "buffer" : 0,
            "byteLength" : 30120,
            "byteOffset" : 210712
        },
        {
            "buffer" : 0,
            "byteLength" : 20080,
            "byteOffset" : 240832
        },
        {
            "buffer" : 0,
            "byteLength" : 9096,
            "byteOffset" : 260912
        },
        {
            "buffer" : 0,
            "byteLength" : 57852,
            "byteOffset" : 270008
        },
        {
            "buffer" : 0,
            "byteLength" : 57852,
            "byteOffset" : 327860
        },
        {
            "buffer" : 0,
            "byteLength" : 38568,
            "byteOffset" : 385712
        },
        {
            "buffer" : 0,
            "byteLength" : 17136,
            "byteOffset" : 424280
        }
    ],
    "buffers" : [
        {
            "byteLength" : 441416,
            "uri" : "data:application/octet-stream;base64,"
        }
    ]
}
