{
    "asset" : {
        "generator" : "Khronos glTF Blender I/O v1.7.33",
        "version" : "2.0"
    },
    "scene" : 0,
    "scenes" : [
        {
            "name" : "Scene",
            "nodes" : [
                0,
                1,
                2,
                3,
                4,
                5
            ]
        }
    ],
    "nodes" : [
        {
            "mesh" : 0,
            "name" : "Rudd-Fish",
            "rotation" : [
                0,
                0.7071068286895752,
                0,
                0.7071068286895752
            ],
            "scale" : [
                0.06980738788843155,
                0.06980738788843155,
                0.06980738788843155
            ],
            "translation" : [
                0.31196045875549316,
                0.7508727312088013,
                -0.12429273128509521
            ]
        },
        {
            "mesh" : 1,
            "name" : "Text",
            "rotation" : [
                0.5,
                0.5,
                -0.5,
                0.4999999701976776
            ],
            "scale" : [
                0.4627862870693207,
                0.4627862870693207,
                0.4627862870693207
            ],
            "translation" : [
                0.633263349533081,
                0.3815457820892334,
                3.4724109172821045
            ]
        },
        {
            "mesh" : 2,
            "name" : "Cylinder.016",
            "rotation" : [
                -0.004398832563310862,
                -0.7449287176132202,
                0.008636175654828548,
                -0.667073667049408
            ],
            "scale" : [
                -0.09888509660959244,
                0.05450419336557388,
                0.04083358123898506
            ],
            "translation" : [
                0.32912278175354004,
                3.178191661834717,
                -1.0211496353149414
            ]
        },
        {
            "mesh" : 3,
            "name" : "Text.001",
            "rotation" : [
                0.5,
                0.5,
                -0.5,
                0.4999999701976776
            ],
            "scale" : [
                0.4627862870693207,
                0.4627862870693207,
                0.4627862870693207
            ],
            "translation" : [
                0.33812832832336426,
                4.394970417022705,
                -0.6327709555625916
            ]
        },
        {
            "mesh" : 4,
            "name" : "Cylinder.000",
            "rotation" : [
                -0.47480300068855286,
                -0.532850980758667,
                -0.5206372737884521,
                -0.4685816764831543
            ],
            "scale" : [
                -0.0828438401222229,
                0.04566248133778572,
                0.034209515899419785
            ],
            "translation" : [
                0.6492276191711426,
                0.1696000099182129,
                1.8684942722320557
            ]
        },
        {
            "mesh" : 5,
            "name" : "Text.002",
            "rotation" : [
                0.5,
                0.5,
                -0.5,
                0.4999999701976776
            ],
            "scale" : [
                0.7375770807266235,
                0.7375770807266235,
                0.7375770807266235
            ],
            "translation" : [
                0.33812832832336426,
                5.429925918579102,
                0.024655461311340332
            ]
        }
    ],
    "materials" : [
        {
            "doubleSided" : true,
            "name" : "Red",
            "pbrMetallicRoughness" : {
                "baseColorFactor" : [
                    0.8000000715255737,
                    0.015620469115674496,
                    0.01137519720941782,
                    1
                ],
                "metallicFactor" : 0,
                "roughnessFactor" : 0.4000000059604645
            }
        },
        {
            "doubleSided" : true,
            "name" : "Black",
            "pbrMetallicRoughness" : {
                "baseColorFactor" : [
                    0.002063402673229575,
                    0.002063402673229575,
                    0.002063402673229575,
                    1
                ],
                "metallicFactor" : 0,
                "roughnessFactor" : 0.4000000059604645
            }
        },
        {
            "doubleSided" : true,
            "name" : "Material.001",
            "pbrMetallicRoughness" : {
                "baseColorFactor" : [
                    0,
                    0,
                    0,
                    1
                ],
                "metallicFactor" : 0,
                "roughnessFactor" : 0.4000000059604645
            }
        },
        {
            "doubleSided" : true,
            "name" : "Material.002",
            "pbrMetallicRoughness" : {
                "baseColorFactor" : [
                    0.0030954419635236263,
                    0.0030954419635236263,
                    0.0030954419635236263,
                    1
                ],
                "metallicFactor" : 0,
                "roughnessFactor" : 0.4000000059604645
            }
        },
        {
            "doubleSided" : true,
            "name" : "Material.029",
            "pbrMetallicRoughness" : {
                "baseColorFactor" : [
                    9.998108725994825e-05,
                    0.5488517880439758,
                    0,
                    1
                ],
                "metallicFactor" : 0,
                "roughnessFactor" : 0.5
            }
        },
        {
            "doubleSided" : true,
            "name" : "Material.003",
            "pbrMetallicRoughness" : {
                "baseColorFactor" : [
                    0.0030954419635236263,
                    0.0030954419635236263,
                    0.0030954419635236263,
                    1
                ],
                "metallicFactor" : 0,
                "roughnessFactor" : 0.4000000059604645
            }
        }
    ],
    "meshes" : [
        {
            "name" : "Cube.001",
            "primitives" : [
                {
                    "attributes" : {
                        "POSITION" : 0,
                        "NORMAL" : 1,
                        "TEXCOORD_0" : 2
                    },
                    "indices" : 3,
                    "material" : 0
                },
                {
                    "attributes" : {
                        "POSITION" : 4,
                        "NORMAL" : 5,
                        "TEXCOORD_0" : 6
                    },
                    "indices" : 7,
                    "material" : 1
                },
                {
                    "attributes" : {
                        "POSITION" : 8,
                        "NORMAL" : 9,
                        "TEXCOORD_0" : 10
                    },
                    "indices" : 11,
                    "material" : 2
                }
            ]
        },
        {
            "name" : "Text",
            "primitives" : [
                {
                    "attributes" : {
                        "POSITION" : 12,
                        "NORMAL" : 13,
                        "TEXCOORD_0" : 14
                    },
                    "indices" : 15,
                    "material" : 3
                }
            ]
        },
        {
            "name" : "Cylinder.036",
            "primitives" : [
                {
                    "attributes" : {
                        "POSITION" : 16,
                        "NORMAL" : 17
                    },
                    "indices" : 18,
                    "material" : 4
                }
            ]
        },
        {
            "name" : "Text.001",
            "primitives" : [
                {
                    "attributes" : {
                        "POSITION" : 19,
                        "NORMAL" : 20,
                        "TEXCOORD_0" : 21
                    },
                    "indices" : 22,
                    "material" : 5
                }
            ]
        },
        {
            "name" : "Cylinder.000",
            "primitives" : [
                {
                    "attributes" : {
                        "POSITION" : 23,
                        "NORMAL" : 24
                    },
                    "indices" : 18,
                    "material" : 4
                }
            ]
        },
        {
            "name" : "Text.002",
            "primitives" : [
                {
                    "attributes" : {
                        "POSITION" : 25,
                        "NORMAL" : 26,
                        "TEXCOORD_0" : 27
                    },
                    "indices" : 28,
                    "material" : 5
                }
            ]
        }
    ],
    "accessors" : [
        {
            "bufferView" : 0,
            "componentType" : 5126,
            "count" : 1566,
            "max" : [
                61.0955696105957,
                27.18975257873535,
                7.255962371826172
            ],
            "min" : [
                -35.143619537353516,
                -16.926271438598633,
                -7.262345790863037
            ],
            "type" : "VEC3"
        },
        {
            "bufferView" : 1,
            "componentType" : 5126,
            "count" : 1566,
            "type" : "VEC3"
        },
        {
            "bufferView" : 2,
            "componentType" : 5126,
            "count" : 1566,
            "type" : "VEC2"
        },
        {
            "bufferView" : 3,
            "componentType" : 5123,
            "count" : 8322,
            "type" : "SCALAR"
        },
        {
            "bufferView" : 4,
            "componentType" : 5126,
            "count" : 125,
            "max" : [
                -29.724626541137695,
                3.5430781841278076,
                2.288597822189331
            ],
            "min" : [
                -32.310508728027344,
                0.4206900894641876,
                -2.2949814796447754
            ],
            "type" : "VEC3"
        },
        {
            "bufferView" : 5,
            "componentType" : 5126,
            "count" : 125,
            "type" : "VEC3"
        },
        {
            "bufferView" : 6,
            "componentType" : 5126,
            "count" : 125,
            "type" : "VEC2"
        },
        {
            "bufferView" : 7,
            "componentType" : 5123,
            "count" : 630,
            "type" : "SCALAR"
        },
        {
            "bufferView" : 8,
            "componentType" : 5126,
            "count" : 30,
            "max" : [
                -11.651931762695312,
                -5.643282890319824,
                7.087404727935791
            ],
            "min" : [
                -21.060415267944336,
                -9.381847381591797,
                -7.102072715759277
            ],
            "type" : "VEC3"
        },
        {
            "bufferView" : 9,
            "componentType" : 5126,
            "count" : 30,
            "type" : "VEC3"
        },
        {
            "bufferView" : 10,
            "componentType" : 5126,
            "count" : 30,
            "type" : "VEC2"
        },
        {
            "bufferView" : 11,
            "componentType" : 5123,
            "count" : 102,
            "type" : "SCALAR"
        },
        {
            "bufferView" : 12,
            "componentType" : 5126,
            "count" : 1902,
            "max" : [
                1.7419999837875366,
                0.06999999284744263,
                0.009000000543892384
            ],
            "min" : [
                0.05000000074505806,
                -0.06999999284744263,
                -0.6910000443458557
            ],
            "type" : "VEC3"
        },
        {
            "bufferView" : 13,
            "componentType" : 5126,
            "count" : 1902,
            "type" : "VEC3"
        },
        {
            "bufferView" : 14,
            "componentType" : 5126,
            "count" : 1902,
            "type" : "VEC2"
        },
        {
            "bufferView" : 15,
            "componentType" : 5123,
            "count" : 3480,
            "type" : "SCALAR"
        },
        {
            "bufferView" : 16,
            "componentType" : 5126,
            "count" : 128,
            "max" : [
                2.3222715854644775,
                20.935077667236328,
                2.3222718238830566
            ],
            "min" : [
                -2.3222715854644775,
                -6.670833110809326,
                -2.3222711086273193
            ],
            "type" : "VEC3"
        },
        {
            "bufferView" : 17,
            "componentType" : 5126,
            "count" : 128,
            "type" : "VEC3"
        },
        {
            "bufferView" : 18,
            "componentType" : 5123,
            "count" : 756,
            "type" : "SCALAR"
        },
        {
            "bufferView" : 19,
            "componentType" : 5126,
            "count" : 1634,
            "max" : [
                1.5329999923706055,
                0.06999999284744263,
                0.009000000543892384
            ],
            "min" : [
                0.07600000500679016,
                -0.06999999284744263,
                -0.6820000410079956
            ],
            "type" : "VEC3"
        },
        {
            "bufferView" : 20,
            "componentType" : 5126,
            "count" : 1634,
            "type" : "VEC3"
        },
        {
            "bufferView" : 21,
            "componentType" : 5126,
            "count" : 1634,
            "type" : "VEC2"
        },
        {
            "bufferView" : 22,
            "componentType" : 5123,
            "count" : 2976,
            "type" : "SCALAR"
        },
        {
            "bufferView" : 23,
            "componentType" : 5126,
            "count" : 128,
            "max" : [
                2.3222715854644775,
                20.935077667236328,
                2.3222718238830566
            ],
            "min" : [
                -2.3222715854644775,
                -6.670833110809326,
                -2.3222711086273193
            ],
            "type" : "VEC3"
        },
        {
            "bufferView" : 24,
            "componentType" : 5126,
            "count" : 128,
            "type" : "VEC3"
        },
        {
            "bufferView" : 25,
            "componentType" : 5126,
            "count" : 960,
            "max" : [
                1.8300001621246338,
                0.06999999284744263,
                0.009000000543892384
            ],
            "min" : [
                0.07600000500679016,
                -0.06999999284744263,
                -0.6910000443458557
            ],
            "type" : "VEC3"
        },
        {
            "bufferView" : 26,
            "componentType" : 5126,
            "count" : 960,
            "type" : "VEC3"
        },
        {
            "bufferView" : 27,
            "componentType" : 5126,
            "count" : 960,
            "type" : "VEC2"
        },
        {
            "bufferView" : 28,
            "componentType" : 5123,
            "count" : 1728,
            "type" : "SCALAR"
        }
    ],
    "bufferViews" : [
        {
            "buffer" : 0,
            "byteLength" : 18792,
            "byteOffset" : 0
        },
        {
            "buffer" : 0,
            "byteLength" : 18792,
            "byteOffset" : 18792
        },
        {
            "buffer" : 0,
            "byteLength" : 12528,
            "byteOffset" : 37584
        },
        {
            "buffer" : 0,
            "byteLength" : 16644,
            "byteOffset" : 50112
        },
        {
            "buffer" : 0,
            "byteLength" : 1500,
            "byteOffset" : 66756
        },
        {
            "buffer" : 0,
            "byteLength" : 1500,
            "byteOffset" : 68256
        },
        {
            "buffer" : 0,
            "byteLength" : 1000,
            "byteOffset" : 69756
        },
        {
            "buffer" : 0,
            "byteLength" : 1260,
            "byteOffset" : 70756
        },
        {
            "buffer" : 0,
            "byteLength" : 360,
            "byteOffset" : 72016
        },
        {
            "buffer" : 0,
            "byteLength" : 360,
            "byteOffset" : 72376
        },
        {
            "buffer" : 0,
            "byteLength" : 240,
            "byteOffset" : 72736
        },
        {
            "buffer" : 0,
            "byteLength" : 204,
            "byteOffset" : 72976
        },
        {
            "buffer" : 0,
            "byteLength" : 22824,
            "byteOffset" : 73180
        },
        {
            "buffer" : 0,
            "byteLength" : 22824,
            "byteOffset" : 96004
        },
        {
            "buffer" : 0,
            "byteLength" : 15216,
            "byteOffset" : 118828
        },
        {
            "buffer" : 0,
            "byteLength" : 6960,
            "byteOffset" : 134044
        },
        {
            "buffer" : 0,
            "byteLength" : 1536,
            "byteOffset" : 141004
        },
        {
            "buffer" : 0,
            "byteLength" : 1536,
            "byteOffset" : 142540
        },
        {
            "buffer" : 0,
            "byteLength" : 1512,
            "byteOffset" : 144076
        },
        {
            "buffer" : 0,
            "byteLength" : 19608,
            "byteOffset" : 145588
        },
        {
            "buffer" : 0,
            "byteLength" : 19608,
            "byteOffset" : 165196
        },
        {
            "buffer" : 0,
            "byteLength" : 13072,
            "byteOffset" : 184804
        },
        {
            "buffer" : 0,
            "byteLength" : 5952,
            "byteOffset" : 197876
        },
        {
            "buffer" : 0,
            "byteLength" : 1536,
            "byteOffset" : 203828
        },
        {
            "buffer" : 0,
            "byteLength" : 1536,
            "byteOffset" : 205364
        },
        {
            "buffer" : 0,
            "byteLength" : 11520,
            "byteOffset" : 206900
        },
        {
            "buffer" : 0,
            "byteLength" : 11520,
            "byteOffset" : 218420
        },
        {
            "buffer" : 0,
            "byteLength" : 7680,
            "byteOffset" : 229940
        },
        {
            "buffer" : 0,
            "byteLength" : 3456,
            "byteOffset" : 237620
        }
    ],
    "buffers" : [
        {
            "byteLength" : 241076,
            "uri" : "data:application/octet-stream;base64,"
        }
    ]
}
