{
    "asset" : {
        "generator" : "Khronos glTF Blender I/O v1.7.33",
        "version" : "2.0"
    },
    "scene" : 0,
    "scenes" : [
        {
            "name" : "Scene",
            "nodes" : [
                0,
                1,
                2
            ]
        }
    ],
    "nodes" : [
        {
            "mesh" : 0,
            "name" : "Sphere",
            "rotation" : [
                0.8940476775169373,
                0.07345270365476608,
                0.40208837389945984,
                -0.1833258420228958
            ],
            "scale" : [
                0.3109378218650818,
                0.2590799629688263,
                0.3109377920627594
            ],
            "translation" : [
                -0.020639698952436447,
                0.4040297269821167,
                0.08517178893089294
            ]
        },
        {
            "mesh" : 1,
            "name" : "Sphere.001",
            "rotation" : [
                -0.16498792171478271,
                0.8633847236633301,
                0.10854806005954742,
                -0.46428775787353516
            ],
            "scale" : [
                0.31075191497802734,
                0.2590799033641815,
                0.2267567366361618
            ],
            "translation" : [
                -0.004185902886092663,
                0.2785900831222534,
                0.03366905450820923
            ]
        },
        {
            "mesh" : 2,
            "name" : "Text",
            "rotation" : [
                0.5,
                0.5,
                -0.5,
                0.4999999701976776
            ],
            "scale" : [
                0.1498953104019165,
                0.1498953104019165,
                0.1498953104019165
            ],
            "translation" : [
                -0.007402356248348951,
                0.9794946908950806,
                0.6070886850357056
            ]
        }
    ],
    "materials" : [
        {
            "doubleSided" : true,
            "name" : "Material.004",
            "pbrMetallicRoughness" : {
                "baseColorFactor" : [
                    0.8000000715255737,
                    0.14494217932224274,
                    0.14837831258773804,
                    1
                ],
                "metallicFactor" : 0,
                "roughnessFactor" : 0.4000000059604645
            }
        },
        {
            "doubleSided" : true,
            "name" : "Material.005",
            "pbrMetallicRoughness" : {
                "baseColorFactor" : [
                    0.3559488356113434,
                    0.3559488356113434,
                    0.3559488356113434,
                    1
                ],
                "metallicFactor" : 0,
                "roughnessFactor" : 0.4000000059604645
            }
        },
        {
            "doubleSided" : true,
            "name" : "Material.007",
            "pbrMetallicRoughness" : {
                "baseColorFactor" : [
                    0.8000000715255737,
                    0.15219201147556305,
                    0.15572677552700043,
                    1
                ],
                "metallicFactor" : 0,
                "roughnessFactor" : 0.4000000059604645
            }
        },
        {
            "doubleSided" : true,
            "name" : "Material.001",
            "pbrMetallicRoughness" : {
                "baseColorFactor" : [
                    0.8000000715255737,
                    0.15871645510196686,
                    0.1851028949022293,
                    1
                ],
                "metallicFactor" : 0,
                "roughnessFactor" : 0.4000000059604645
            }
        },
        {
            "doubleSided" : true,
            "name" : "Material.006",
            "pbrMetallicRoughness" : {
                "baseColorFactor" : [
                    0.2585451304912567,
                    0.2585451304912567,
                    0.2585451304912567,
                    1
                ],
                "metallicFactor" : 0,
                "roughnessFactor" : 0.4000000059604645
            }
        },
        {
            "doubleSided" : true,
            "name" : "Material.002",
            "pbrMetallicRoughness" : {
                "baseColorFactor" : [
                    0.8000000715255737,
                    0.22558993101119995,
                    0.25779709219932556,
                    1
                ],
                "metallicFactor" : 0,
                "roughnessFactor" : 0.4000000059604645
            }
        },
        {
            "doubleSided" : true,
            "name" : "Material.008",
            "pbrMetallicRoughness" : {
                "baseColorFactor" : [
                    0,
                    0,
                    0,
                    1
                ],
                "metallicFactor" : 0,
                "roughnessFactor" : 0.4000000059604645
            }
        }
    ],
    "meshes" : [
        {
            "name" : "Sphere",
            "primitives" : [
                {
                    "attributes" : {
                        "POSITION" : 0,
                        "NORMAL" : 1,
                        "TEXCOORD_0" : 2
                    },
                    "indices" : 3,
                    "material" : 0
                },
                {
                    "attributes" : {
                        "POSITION" : 4,
                        "NORMAL" : 5,
                        "TEXCOORD_0" : 6
                    },
                    "indices" : 7,
                    "material" : 1
                },
                {
                    "attributes" : {
                        "POSITION" : 8,
                        "NORMAL" : 9,
                        "TEXCOORD_0" : 10
                    },
                    "indices" : 11,
                    "material" : 2
                }
            ]
        },
        {
            "name" : "Sphere.002",
            "primitives" : [
                {
                    "attributes" : {
                        "POSITION" : 12,
                        "NORMAL" : 13,
                        "TEXCOORD_0" : 14
                    },
                    "indices" : 15,
                    "material" : 3
                },
                {
                    "attributes" : {
                        "POSITION" : 16,
                        "NORMAL" : 17,
                        "TEXCOORD_0" : 18
                    },
                    "indices" : 19,
                    "material" : 4
                },
                {
                    "attributes" : {
                        "POSITION" : 20,
                        "NORMAL" : 21,
                        "TEXCOORD_0" : 22
                    },
                    "indices" : 11,
                    "material" : 5
                }
            ]
        },
        {
            "name" : "Text",
            "primitives" : [
                {
                    "attributes" : {
                        "POSITION" : 23,
                        "NORMAL" : 24,
                        "TEXCOORD_0" : 25
                    },
                    "indices" : 26,
                    "material" : 6
                }
            ]
        }
    ],
    "accessors" : [
        {
            "bufferView" : 0,
            "componentType" : 5126,
            "count" : 1469,
            "max" : [
                1.0000001192092896,
                0.5341073870658875,
                0.8871599435806274
            ],
            "min" : [
                -1.0000003576278687,
                -0.9999999403953552,
                -0.8871597051620483
            ],
            "type" : "VEC3"
        },
        {
            "bufferView" : 1,
            "componentType" : 5126,
            "count" : 1469,
            "type" : "VEC3"
        },
        {
            "bufferView" : 2,
            "componentType" : 5126,
            "count" : 1469,
            "type" : "VEC2"
        },
        {
            "bufferView" : 3,
            "componentType" : 5123,
            "count" : 6891,
            "type" : "SCALAR"
        },
        {
            "bufferView" : 4,
            "componentType" : 5126,
            "count" : 430,
            "max" : [
                0.37434816360473633,
                0.359476238489151,
                0.41110143065452576
            ],
            "min" : [
                -0.36447957158088684,
                -0.27237796783447266,
                -0.5490663051605225
            ],
            "type" : "VEC3"
        },
        {
            "bufferView" : 5,
            "componentType" : 5126,
            "count" : 430,
            "type" : "VEC3"
        },
        {
            "bufferView" : 6,
            "componentType" : 5126,
            "count" : 430,
            "type" : "VEC2"
        },
        {
            "bufferView" : 7,
            "componentType" : 5123,
            "count" : 1713,
            "type" : "SCALAR"
        },
        {
            "bufferView" : 8,
            "componentType" : 5126,
            "count" : 130,
            "max" : [
                0.3036459982395172,
                -0.8089771270751953,
                0.3036459982395172
            ],
            "min" : [
                -0.3036459982395172,
                -1.537825584411621,
                -0.3036459982395172
            ],
            "type" : "VEC3"
        },
        {
            "bufferView" : 9,
            "componentType" : 5126,
            "count" : 130,
            "type" : "VEC3"
        },
        {
            "bufferView" : 10,
            "componentType" : 5126,
            "count" : 130,
            "type" : "VEC2"
        },
        {
            "bufferView" : 11,
            "componentType" : 5123,
            "count" : 372,
            "type" : "SCALAR"
        },
        {
            "bufferView" : 12,
            "componentType" : 5126,
            "count" : 1452,
            "max" : [
                1.0000001192092896,
                0.5341073870658875,
                0.8871599435806274
            ],
            "min" : [
                -1.0000003576278687,
                -0.9999999403953552,
                -0.8871597051620483
            ],
            "type" : "VEC3"
        },
        {
            "bufferView" : 13,
            "componentType" : 5126,
            "count" : 1452,
            "type" : "VEC3"
        },
        {
            "bufferView" : 14,
            "componentType" : 5126,
            "count" : 1452,
            "type" : "VEC2"
        },
        {
            "bufferView" : 15,
            "componentType" : 5123,
            "count" : 6834,
            "type" : "SCALAR"
        },
        {
            "bufferView" : 16,
            "componentType" : 5126,
            "count" : 450,
            "max" : [
                0.35699188709259033,
                0.359476238489151,
                0.41110143065452576
            ],
            "min" : [
                -0.38183581829071045,
                -0.2782304883003235,
                -0.5499855875968933
            ],
            "type" : "VEC3"
        },
        {
            "bufferView" : 17,
            "componentType" : 5126,
            "count" : 450,
            "type" : "VEC3"
        },
        {
            "bufferView" : 18,
            "componentType" : 5126,
            "count" : 450,
            "type" : "VEC2"
        },
        {
            "bufferView" : 19,
            "componentType" : 5123,
            "count" : 1770,
            "type" : "SCALAR"
        },
        {
            "bufferView" : 20,
            "componentType" : 5126,
            "count" : 130,
            "max" : [
                0.30349257588386536,
                -0.770082950592041,
                0.41591304540634155
            ],
            "min" : [
                -0.30349257588386536,
                -1.498931884765625,
                -0.41591155529022217
            ],
            "type" : "VEC3"
        },
        {
            "bufferView" : 21,
            "componentType" : 5126,
            "count" : 130,
            "type" : "VEC3"
        },
        {
            "bufferView" : 22,
            "componentType" : 5126,
            "count" : 130,
            "type" : "VEC2"
        },
        {
            "bufferView" : 23,
            "componentType" : 5126,
            "count" : 6595,
            "max" : [
                5.311000823974609,
                0.07999999076128006,
                0.23000000417232513
            ],
            "min" : [
                0.05000000074505806,
                -0.07999999076128006,
                -0.6910000443458557
            ],
            "type" : "VEC3"
        },
        {
            "bufferView" : 24,
            "componentType" : 5126,
            "count" : 6595,
            "type" : "VEC3"
        },
        {
            "bufferView" : 25,
            "componentType" : 5126,
            "count" : 6595,
            "type" : "VEC2"
        },
        {
            "bufferView" : 26,
            "componentType" : 5123,
            "count" : 12324,
            "type" : "SCALAR"
        }
    ],
    "bufferViews" : [
        {
            "buffer" : 0,
            "byteLength" : 17628,
            "byteOffset" : 0
        },
        {
            "buffer" : 0,
            "byteLength" : 17628,
            "byteOffset" : 17628
        },
        {
            "buffer" : 0,
            "byteLength" : 11752,
            "byteOffset" : 35256
        },
        {
            "buffer" : 0,
            "byteLength" : 13782,
            "byteOffset" : 47008
        },
        {
            "buffer" : 0,
            "byteLength" : 5160,
            "byteOffset" : 60792
        },
        {
            "buffer" : 0,
            "byteLength" : 5160,
            "byteOffset" : 65952
        },
        {
            "buffer" : 0,
            "byteLength" : 3440,
            "byteOffset" : 71112
        },
        {
            "buffer" : 0,
            "byteLength" : 3426,
            "byteOffset" : 74552
        },
        {
            "buffer" : 0,
            "byteLength" : 1560,
            "byteOffset" : 77980
        },
        {
            "buffer" : 0,
            "byteLength" : 1560,
            "byteOffset" : 79540
        },
        {
            "buffer" : 0,
            "byteLength" : 1040,
            "byteOffset" : 81100
        },
        {
            "buffer" : 0,
            "byteLength" : 744,
            "byteOffset" : 82140
        },
        {
            "buffer" : 0,
            "byteLength" : 17424,
            "byteOffset" : 82884
        },
        {
            "buffer" : 0,
            "byteLength" : 17424,
            "byteOffset" : 100308
        },
        {
            "buffer" : 0,
            "byteLength" : 11616,
            "byteOffset" : 117732
        },
        {
            "buffer" : 0,
            "byteLength" : 13668,
            "byteOffset" : 129348
        },
        {
            "buffer" : 0,
            "byteLength" : 5400,
            "byteOffset" : 143016
        },
        {
            "buffer" : 0,
            "byteLength" : 5400,
            "byteOffset" : 148416
        },
        {
            "buffer" : 0,
            "byteLength" : 3600,
            "byteOffset" : 153816
        },
        {
            "buffer" : 0,
            "byteLength" : 3540,
            "byteOffset" : 157416
        },
        {
            "buffer" : 0,
            "byteLength" : 1560,
            "byteOffset" : 160956
        },
        {
            "buffer" : 0,
            "byteLength" : 1560,
            "byteOffset" : 162516
        },
        {
            "buffer" : 0,
            "byteLength" : 1040,
            "byteOffset" : 164076
        },
        {
            "buffer" : 0,
            "byteLength" : 79140,
            "byteOffset" : 165116
        },
        {
            "buffer" : 0,
            "byteLength" : 79140,
            "byteOffset" : 244256
        },
        {
            "buffer" : 0,
            "byteLength" : 52760,
            "byteOffset" : 323396
        },
        {
            "buffer" : 0,
            "byteLength" : 24648,
            "byteOffset" : 376156
        }
    ],
    "buffers" : [
        {
            "byteLength" : 400804,
            "uri" : "data:application/octet-stream;base64,"
        }
    ]
}
