{
    "asset" : {
        "generator" : "Khronos glTF Blender I/O v1.3.48",
        "version" : "2.0"
    },
    "scene" : 0,
    "scenes" : [
        {
            "name" : "Scene",
            "nodes" : [
                0
            ]
        }
    ],
    "nodes" : [
        {
            "mesh" : 0,
            "name" : "Plane",
            "scale" : [
                1.2431766986846924,
                1.2431766986846924,
                1.2431766986846924
            ],
            "translation" : [
                2.407583713531494,
                0.4143897294998169,
                0.03232121467590332
            ]
        }
    ],
    "materials" : [
        {
            "doubleSided" : true,
            "name" : "Material.001",
            "pbrMetallicRoughness" : {}
        }
    ],
    "meshes" : [
        {
            "name" : "Plane.001",
            "primitives" : [
                {
                    "attributes" : {
                        "POSITION" : 0,
                        "NORMAL" : 1,
                        "TEXCOORD_0" : 2
                    },
                    "indices" : 3,
                    "material" : 0
                }
            ]
        }
    ],
    "accessors" : [
        {
            "bufferView" : 0,
            "componentType" : 5126,
            "count" : 932,
            "max" : [
                0.7939471006393433,
                6.705522537231445e-08,
                0.9131744503974915
            ],
            "min" : [
                -0.7119645476341248,
                -0.19759593904018402,
                -0.9368384480476379
            ],
            "type" : "VEC3"
        },
        {
            "bufferView" : 1,
            "componentType" : 5126,
            "count" : 932,
            "type" : "VEC3"
        },
        {
            "bufferView" : 2,
            "componentType" : 5126,
            "count" : 932,
            "type" : "VEC2"
        },
        {
            "bufferView" : 3,
            "componentType" : 5123,
            "count" : 5766,
            "type" : "SCALAR"
        }
    ],
    "bufferViews" : [
        {
            "buffer" : 0,
            "byteLength" : 11184,
            "byteOffset" : 0
        },
        {
            "buffer" : 0,
            "byteLength" : 11184,
            "byteOffset" : 11184
        },
        {
            "buffer" : 0,
            "byteLength" : 7456,
            "byteOffset" : 22368
        },
        {
            "buffer" : 0,
            "byteLength" : 11532,
            "byteOffset" : 29824
        }
    ],
    "buffers" : [
        {
            "byteLength" : 41356,
            "uri" : "data:application/octet-stream;base64,"
        }
    ]
}
