{
    "asset" : {
        "generator" : "Khronos glTF Blender I/O v1.7.33",
        "version" : "2.0"
    },
    "scene" : 0,
    "scenes" : [
        {
            "name" : "Scene",
            "nodes" : [
                0,
                1
            ]
        }
    ],
    "nodes" : [
        {
            "mesh" : 0,
            "name" : "Cube",
            "scale" : [
                0.019149094820022583,
                0.019149094820022583,
                0.019149094820022583
            ],
            "translation" : [
                -0.010750442743301392,
                0.2590160667896271,
                -0.08056816458702087
            ]
        },
        {
            "mesh" : 1,
            "name" : "Cylinder",
            "scale" : [
                0.013218325562775135,
                0.12741497159004211,
                0.019149094820022583
            ],
            "translation" : [
                -0.010750442743301392,
                0.15379002690315247,
                -0.08038637042045593
            ]
        }
    ],
    "materials" : [
        {
            "doubleSided" : true,
            "name" : "Material.002",
            "pbrMetallicRoughness" : {
                "baseColorFactor" : [
                    0.800000011920929,
                    0.800000011920929,
                    0.800000011920929,
                    1
                ],
                "metallicFactor" : 0.9299994111061096,
                "roughnessFactor" : 0.2500001788139343
            }
        },
        {
            "doubleSided" : true,
            "name" : "Material.001",
            "pbrMetallicRoughness" : {
                "baseColorFactor" : [
                    0.8000000715255737,
                    0.24298396706581116,
                    0.05849321931600571,
                    1
                ],
                "metallicFactor" : 0.10999999940395355,
                "roughnessFactor" : 0.7699996829032898
            }
        }
    ],
    "meshes" : [
        {
            "name" : "Cube.001",
            "primitives" : [
                {
                    "attributes" : {
                        "POSITION" : 0,
                        "NORMAL" : 1,
                        "TEXCOORD_0" : 2
                    },
                    "indices" : 3,
                    "material" : 0
                }
            ]
        },
        {
            "name" : "Cylinder",
            "primitives" : [
                {
                    "attributes" : {
                        "POSITION" : 4,
                        "NORMAL" : 5,
                        "TEXCOORD_0" : 6
                    },
                    "indices" : 7,
                    "material" : 1
                }
            ]
        }
    ],
    "accessors" : [
        {
            "bufferView" : 0,
            "componentType" : 5126,
            "count" : 319,
            "max" : [
                1.4693013429641724,
                1.4693013429641724,
                3.834700107574463
            ],
            "min" : [
                -1.4693013429641724,
                -1.4693013429641724,
                -5.299309730529785
            ],
            "type" : "VEC3"
        },
        {
            "bufferView" : 1,
            "componentType" : 5126,
            "count" : 319,
            "type" : "VEC3"
        },
        {
            "bufferView" : 2,
            "componentType" : 5126,
            "count" : 319,
            "type" : "VEC2"
        },
        {
            "bufferView" : 3,
            "componentType" : 5123,
            "count" : 1608,
            "type" : "SCALAR"
        },
        {
            "bufferView" : 4,
            "componentType" : 5126,
            "count" : 1060,
            "max" : [
                1,
                1,
                1
            ],
            "min" : [
                -1,
                -1,
                -1
            ],
            "type" : "VEC3"
        },
        {
            "bufferView" : 5,
            "componentType" : 5126,
            "count" : 1060,
            "type" : "VEC3"
        },
        {
            "bufferView" : 6,
            "componentType" : 5126,
            "count" : 1060,
            "type" : "VEC2"
        },
        {
            "bufferView" : 7,
            "componentType" : 5123,
            "count" : 2100,
            "type" : "SCALAR"
        }
    ],
    "bufferViews" : [
        {
            "buffer" : 0,
            "byteLength" : 3828,
            "byteOffset" : 0
        },
        {
            "buffer" : 0,
            "byteLength" : 3828,
            "byteOffset" : 3828
        },
        {
            "buffer" : 0,
            "byteLength" : 2552,
            "byteOffset" : 7656
        },
        {
            "buffer" : 0,
            "byteLength" : 3216,
            "byteOffset" : 10208
        },
        {
            "buffer" : 0,
            "byteLength" : 12720,
            "byteOffset" : 13424
        },
        {
            "buffer" : 0,
            "byteLength" : 12720,
            "byteOffset" : 26144
        },
        {
            "buffer" : 0,
            "byteLength" : 8480,
            "byteOffset" : 38864
        },
        {
            "buffer" : 0,
            "byteLength" : 4200,
            "byteOffset" : 47344
        }
    ],
    "buffers" : [
        {
            "byteLength" : 51544,
            "uri" : "data:application/octet-stream;base64,"
        }
    ]
}
