{
    "asset" : {
        "generator" : "Khronos glTF Blender I/O v1.7.33",
        "version" : "2.0"
    },
    "scene" : 0,
    "scenes" : [
        {
            "name" : "Scene",
            "nodes" : [
                0,
                1
            ]
        }
    ],
    "nodes" : [
        {
            "mesh" : 0,
            "name" : "MagnifyingGlass",
            "rotation" : [
                0.5,
                0.4999999701976776,
                -0.5000000596046448,
                0.4999999403953552
            ],
            "scale" : [
                0.05344545841217041,
                0.05344545841217041,
                0.05344545841217041
            ]
        },
        {
            "mesh" : 1,
            "name" : "Text",
            "rotation" : [
                0.5,
                0.5,
                -0.5,
                0.4999999701976776
            ],
            "scale" : [
                0.21643587946891785,
                0.21643587946891785,
                0.21643587946891785
            ],
            "translation" : [
                0,
                1.5640325546264648,
                0.9292406439781189
            ]
        }
    ],
    "materials" : [
        {
            "doubleSided" : true,
            "name" : "Material.001",
            "pbrMetallicRoughness" : {
                "baseColorFactor" : [
                    0,
                    0,
                    0,
                    1
                ],
                "metallicFactor" : 0,
                "roughnessFactor" : 0.4000000059604645
            }
        },
        {
            "doubleSided" : true,
            "name" : "Material.002",
            "pbrMetallicRoughness" : {
                "baseColorFactor" : [
                    0.8000000715255737,
                    0.22365595400333405,
                    0.019433744251728058,
                    1
                ],
                "metallicFactor" : 0,
                "roughnessFactor" : 0.4000000059604645
            }
        },
        {
            "doubleSided" : true,
            "name" : "Material.003",
            "pbrMetallicRoughness" : {
                "baseColorFactor" : [
                    0,
                    0,
                    0,
                    1
                ],
                "metallicFactor" : 0,
                "roughnessFactor" : 0.4000000059604645
            }
        }
    ],
    "meshes" : [
        {
            "name" : "MagnifyingGlass",
            "primitives" : [
                {
                    "attributes" : {
                        "POSITION" : 0,
                        "NORMAL" : 1,
                        "TEXCOORD_0" : 2
                    },
                    "indices" : 3,
                    "material" : 0
                },
                {
                    "attributes" : {
                        "POSITION" : 4,
                        "NORMAL" : 5,
                        "TEXCOORD_0" : 6
                    },
                    "indices" : 7,
                    "material" : 1
                },
                {
                    "attributes" : {
                        "POSITION" : 8,
                        "NORMAL" : 9,
                        "TEXCOORD_0" : 10
                    },
                    "indices" : 11
                }
            ]
        },
        {
            "name" : "Text",
            "primitives" : [
                {
                    "attributes" : {
                        "POSITION" : 12,
                        "NORMAL" : 13,
                        "TEXCOORD_0" : 14
                    },
                    "indices" : 15,
                    "material" : 2
                }
            ]
        }
    ],
    "accessors" : [
        {
            "bufferView" : 0,
            "componentType" : 5126,
            "count" : 1673,
            "max" : [
                5.746729850769043,
                0.9905620217323303,
                -10.723592758178711
            ],
            "min" : [
                -5.746734142303467,
                -0.9905269742012024,
                -25.337997436523438
            ],
            "type" : "VEC3"
        },
        {
            "bufferView" : 1,
            "componentType" : 5126,
            "count" : 1673,
            "type" : "VEC3"
        },
        {
            "bufferView" : 2,
            "componentType" : 5126,
            "count" : 1673,
            "type" : "VEC2"
        },
        {
            "bufferView" : 3,
            "componentType" : 5123,
            "count" : 7266,
            "type" : "SCALAR"
        },
        {
            "bufferView" : 4,
            "componentType" : 5126,
            "count" : 527,
            "max" : [
                1.087833046913147,
                1.087833046913147,
                0.16449999809265137
            ],
            "min" : [
                -1.087833046913147,
                -1.087833046913147,
                -10.723593711853027
            ],
            "type" : "VEC3"
        },
        {
            "bufferView" : 5,
            "componentType" : 5126,
            "count" : 527,
            "type" : "VEC3"
        },
        {
            "bufferView" : 6,
            "componentType" : 5126,
            "count" : 527,
            "type" : "VEC2"
        },
        {
            "bufferView" : 7,
            "componentType" : 5123,
            "count" : 2280,
            "type" : "SCALAR"
        },
        {
            "bufferView" : 8,
            "componentType" : 5126,
            "count" : 976,
            "max" : [
                5.564505100250244,
                0.8675640225410461,
                -13.97061824798584
            ],
            "min" : [
                -5.564507961273193,
                -0.8675640225410461,
                -25.15570831298828
            ],
            "type" : "VEC3"
        },
        {
            "bufferView" : 9,
            "componentType" : 5126,
            "count" : 976,
            "type" : "VEC3"
        },
        {
            "bufferView" : 10,
            "componentType" : 5126,
            "count" : 976,
            "type" : "VEC2"
        },
        {
            "bufferView" : 11,
            "componentType" : 5123,
            "count" : 5442,
            "type" : "SCALAR"
        },
        {
            "bufferView" : 12,
            "componentType" : 5126,
            "count" : 4226,
            "max" : [
                9.121999740600586,
                0.04999999701976776,
                0.009000000543892384
            ],
            "min" : [
                0.07300000637769699,
                -0.04999999701976776,
                -0.6910000443458557
            ],
            "type" : "VEC3"
        },
        {
            "bufferView" : 13,
            "componentType" : 5126,
            "count" : 4226,
            "type" : "VEC3"
        },
        {
            "bufferView" : 14,
            "componentType" : 5126,
            "count" : 4226,
            "type" : "VEC2"
        },
        {
            "bufferView" : 15,
            "componentType" : 5123,
            "count" : 7524,
            "type" : "SCALAR"
        }
    ],
    "bufferViews" : [
        {
            "buffer" : 0,
            "byteLength" : 20076,
            "byteOffset" : 0
        },
        {
            "buffer" : 0,
            "byteLength" : 20076,
            "byteOffset" : 20076
        },
        {
            "buffer" : 0,
            "byteLength" : 13384,
            "byteOffset" : 40152
        },
        {
            "buffer" : 0,
            "byteLength" : 14532,
            "byteOffset" : 53536
        },
        {
            "buffer" : 0,
            "byteLength" : 6324,
            "byteOffset" : 68068
        },
        {
            "buffer" : 0,
            "byteLength" : 6324,
            "byteOffset" : 74392
        },
        {
            "buffer" : 0,
            "byteLength" : 4216,
            "byteOffset" : 80716
        },
        {
            "buffer" : 0,
            "byteLength" : 4560,
            "byteOffset" : 84932
        },
        {
            "buffer" : 0,
            "byteLength" : 11712,
            "byteOffset" : 89492
        },
        {
            "buffer" : 0,
            "byteLength" : 11712,
            "byteOffset" : 101204
        },
        {
            "buffer" : 0,
            "byteLength" : 7808,
            "byteOffset" : 112916
        },
        {
            "buffer" : 0,
            "byteLength" : 10884,
            "byteOffset" : 120724
        },
        {
            "buffer" : 0,
            "byteLength" : 50712,
            "byteOffset" : 131608
        },
        {
            "buffer" : 0,
            "byteLength" : 50712,
            "byteOffset" : 182320
        },
        {
            "buffer" : 0,
            "byteLength" : 33808,
            "byteOffset" : 233032
        },
        {
            "buffer" : 0,
            "byteLength" : 15048,
            "byteOffset" : 266840
        }
    ],
    "buffers" : [
        {
            "byteLength" : 281888,
            "uri" : "data:application/octet-stream;base64,"
        }
    ]
}
