{
    "asset" : {
        "generator" : "Khronos glTF Blender I/O v1.7.33",
        "version" : "2.0"
    },
    "scene" : 0,
    "scenes" : [
        {
            "name" : "Scene",
            "nodes" : [
                0
            ]
        }
    ],
    "nodes" : [
        {
            "mesh" : 0,
            "name" : "CROW",
            "rotation" : [
                0.7071068286895752,
                0,
                0,
                0.7071067094802856
            ],
            "scale" : [
                2.142514705657959,
                2.142514705657959,
                2.142514705657959
            ]
        }
    ],
    "materials" : [
        {
            "doubleSided" : true,
            "name" : "Material.001",
            "pbrMetallicRoughness" : {
                "baseColorFactor" : [
                    0.30319780111312866,
                    0.11027249693870544,
                    0.06144269183278084,
                    1
                ],
                "metallicFactor" : 0,
                "roughnessFactor" : 0.4000000059604645
            }
        },
        {
            "doubleSided" : true,
            "name" : "Material.003",
            "pbrMetallicRoughness" : {
                "baseColorFactor" : [
                    0.04696159437298775,
                    0.04696159437298775,
                    0.04696159437298775,
                    1
                ],
                "metallicFactor" : 0,
                "roughnessFactor" : 0.4000000059604645
            }
        },
        {
            "doubleSided" : true,
            "name" : "Material",
            "pbrMetallicRoughness" : {
                "baseColorFactor" : [
                    0.5488520264625549,
                    0.4461333453655243,
                    0.03011184185743332,
                    1
                ],
                "metallicFactor" : 0,
                "roughnessFactor" : 0.4000000059604645
            }
        }
    ],
    "meshes" : [
        {
            "name" : "CROW",
            "primitives" : [
                {
                    "attributes" : {
                        "POSITION" : 0,
                        "NORMAL" : 1,
                        "TEXCOORD_0" : 2
                    },
                    "indices" : 3,
                    "material" : 0
                },
                {
                    "attributes" : {
                        "POSITION" : 4,
                        "NORMAL" : 5,
                        "TEXCOORD_0" : 6
                    },
                    "indices" : 7,
                    "material" : 1
                },
                {
                    "attributes" : {
                        "POSITION" : 8,
                        "NORMAL" : 9,
                        "TEXCOORD_0" : 10
                    },
                    "indices" : 11,
                    "material" : 2
                }
            ]
        }
    ],
    "accessors" : [
        {
            "bufferView" : 0,
            "componentType" : 5126,
            "count" : 1144,
            "max" : [
                0.06992270052433014,
                0.10342700034379959,
                0.014317899942398071
            ],
            "min" : [
                -0.06992270052433014,
                -0.29004642367362976,
                -0.22081199288368225
            ],
            "type" : "VEC3"
        },
        {
            "bufferView" : 1,
            "componentType" : 5126,
            "count" : 1144,
            "type" : "VEC3"
        },
        {
            "bufferView" : 2,
            "componentType" : 5126,
            "count" : 1144,
            "type" : "VEC2"
        },
        {
            "bufferView" : 3,
            "componentType" : 5123,
            "count" : 5931,
            "type" : "SCALAR"
        },
        {
            "bufferView" : 4,
            "componentType" : 5126,
            "count" : 359,
            "max" : [
                0.03319299966096878,
                0.12210100144147873,
                -0.17095200717449188
            ],
            "min" : [
                -0.03319299966096878,
                0.009362920187413692,
                -0.24561600387096405
            ],
            "type" : "VEC3"
        },
        {
            "bufferView" : 5,
            "componentType" : 5126,
            "count" : 359,
            "type" : "VEC3"
        },
        {
            "bufferView" : 6,
            "componentType" : 5126,
            "count" : 359,
            "type" : "VEC2"
        },
        {
            "bufferView" : 7,
            "componentType" : 5123,
            "count" : 1761,
            "type" : "SCALAR"
        },
        {
            "bufferView" : 8,
            "componentType" : 5126,
            "count" : 1901,
            "max" : [
                0.04416840150952339,
                0.15828299522399902,
                0.014317899942398071
            ],
            "min" : [
                -0.04416840150952339,
                -0.03676839917898178,
                -0.22902299463748932
            ],
            "type" : "VEC3"
        },
        {
            "bufferView" : 9,
            "componentType" : 5126,
            "count" : 1901,
            "type" : "VEC3"
        },
        {
            "bufferView" : 10,
            "componentType" : 5126,
            "count" : 1901,
            "type" : "VEC2"
        },
        {
            "bufferView" : 11,
            "componentType" : 5123,
            "count" : 10806,
            "type" : "SCALAR"
        }
    ],
    "bufferViews" : [
        {
            "buffer" : 0,
            "byteLength" : 13728,
            "byteOffset" : 0
        },
        {
            "buffer" : 0,
            "byteLength" : 13728,
            "byteOffset" : 13728
        },
        {
            "buffer" : 0,
            "byteLength" : 9152,
            "byteOffset" : 27456
        },
        {
            "buffer" : 0,
            "byteLength" : 11862,
            "byteOffset" : 36608
        },
        {
            "buffer" : 0,
            "byteLength" : 4308,
            "byteOffset" : 48472
        },
        {
            "buffer" : 0,
            "byteLength" : 4308,
            "byteOffset" : 52780
        },
        {
            "buffer" : 0,
            "byteLength" : 2872,
            "byteOffset" : 57088
        },
        {
            "buffer" : 0,
            "byteLength" : 3522,
            "byteOffset" : 59960
        },
        {
            "buffer" : 0,
            "byteLength" : 22812,
            "byteOffset" : 63484
        },
        {
            "buffer" : 0,
            "byteLength" : 22812,
            "byteOffset" : 86296
        },
        {
            "buffer" : 0,
            "byteLength" : 15208,
            "byteOffset" : 109108
        },
        {
            "buffer" : 0,
            "byteLength" : 21612,
            "byteOffset" : 124316
        }
    ],
    "buffers" : [
        {
            "byteLength" : 145928,
            "uri" : "data:application/octet-stream;base64,"
        }
    ]
}
