{
    "asset" : {
        "generator" : "Khronos glTF Blender I/O v1.7.33",
        "version" : "2.0"
    },
    "scene" : 0,
    "scenes" : [
        {
            "name" : "Scene",
            "nodes" : [
                0
            ]
        }
    ],
    "nodes" : [
        {
            "mesh" : 0,
            "name" : "12683_hand_v1_FINAL",
            "rotation" : [
                0.5000001192092896,
                -0.5000000596046448,
                -0.5,
                0.5
            ],
            "scale" : [
                0.03854704648256302,
                0.03854704648256302,
                0.03854704648256302
            ],
            "translation" : [
                0,
                1.2740390300750732,
                0
            ]
        }
    ],
    "materials" : [
        {
            "doubleSided" : true,
            "name" : "Material.002",
            "pbrMetallicRoughness" : {
                "baseColorFactor" : [
                    1,
                    0.6178596615791321,
                    0.5539495944976807,
                    1
                ],
                "metallicFactor" : 0,
                "roughnessFactor" : 0.4000000059604645
            }
        }
    ],
    "meshes" : [
        {
            "name" : "12683_hand_v1_FINAL",
            "primitives" : [
                {
                    "attributes" : {
                        "POSITION" : 0,
                        "NORMAL" : 1,
                        "TEXCOORD_0" : 2
                    },
                    "indices" : 3,
                    "material" : 0
                }
            ]
        }
    ],
    "accessors" : [
        {
            "bufferView" : 0,
            "componentType" : 5126,
            "count" : 51091,
            "max" : [
                27.566699981689453,
                16.792600631713867,
                29.56220054626465
            ],
            "min" : [
                -42.03900146484375,
                -10.272299766540527,
                -14.779500007629395
            ],
            "type" : "VEC3"
        },
        {
            "bufferView" : 1,
            "componentType" : 5126,
            "count" : 51091,
            "type" : "VEC3"
        },
        {
            "bufferView" : 2,
            "componentType" : 5126,
            "count" : 51091,
            "type" : "VEC2"
        },
        {
            "bufferView" : 3,
            "componentType" : 5123,
            "count" : 299136,
            "type" : "SCALAR"
        }
    ],
    "bufferViews" : [
        {
            "buffer" : 0,
            "byteLength" : 613092,
            "byteOffset" : 0
        },
        {
            "buffer" : 0,
            "byteLength" : 613092,
            "byteOffset" : 613092
        },
        {
            "buffer" : 0,
            "byteLength" : 408728,
            "byteOffset" : 1226184
        },
        {
            "buffer" : 0,
            "byteLength" : 598272,
            "byteOffset" : 1634912
        }
    ],
    "buffers" : [
        {
            "byteLength" : 2233184,
            "uri" : "data:application/octet-stream;base64,"
        }
    ]
}
