{
    "asset" : {
        "generator" : "Khronos glTF Blender I/O v1.7.33",
        "version" : "2.0"
    },
    "scene" : 0,
    "scenes" : [
        {
            "name" : "Scene",
            "nodes" : [
                0
            ]
        }
    ],
    "nodes" : [
        {
            "mesh" : 0,
            "name" : "leg",
            "rotation" : [
                0,
                0.7691269516944885,
                0,
                0.6390960216522217
            ],
            "scale" : [
                3.3046586513519287,
                3.3046579360961914,
                3.3046586513519287
            ],
            "translation" : [
                0.3449111580848694,
                0.4701840877532959,
                0.026206761598587036
            ]
        }
    ],
    "materials" : [
        {
            "doubleSided" : true,
            "name" : "Material.001",
            "pbrMetallicRoughness" : {
                "baseColorFactor" : [
                    1,
                    0.7168722152709961,
                    0.6698787212371826,
                    1
                ],
                "metallicFactor" : 0,
                "roughnessFactor" : 0.4000000059604645
            }
        }
    ],
    "meshes" : [
        {
            "name" : "Plane.004",
            "primitives" : [
                {
                    "attributes" : {
                        "POSITION" : 0,
                        "NORMAL" : 1
                    },
                    "indices" : 2,
                    "material" : 0
                }
            ]
        }
    ],
    "accessors" : [
        {
            "bufferView" : 0,
            "componentType" : 5126,
            "count" : 1869,
            "max" : [
                0.22774221003055573,
                0.4246593713760376,
                0.30859583616256714
            ],
            "min" : [
                -0.17565950751304626,
                -0.10480862855911255,
                -0.5601510405540466
            ],
            "type" : "VEC3"
        },
        {
            "bufferView" : 1,
            "componentType" : 5126,
            "count" : 1869,
            "type" : "VEC3"
        },
        {
            "bufferView" : 2,
            "componentType" : 5123,
            "count" : 11148,
            "type" : "SCALAR"
        }
    ],
    "bufferViews" : [
        {
            "buffer" : 0,
            "byteLength" : 22428,
            "byteOffset" : 0
        },
        {
            "buffer" : 0,
            "byteLength" : 22428,
            "byteOffset" : 22428
        },
        {
            "buffer" : 0,
            "byteLength" : 22296,
            "byteOffset" : 44856
        }
    ],
    "buffers" : [
        {
            "byteLength" : 67152,
            "uri" : "data:application/octet-stream;base64,"
        }
    ]
}
