{
    "asset" : {
        "generator" : "Khronos glTF Blender I/O v1.8.19",
        "version" : "2.0"
    },
    "scene" : 0,
    "scenes" : [
        {
            "name" : "Scene",
            "nodes" : [
                0,
                1,
                2,
                3,
                4,
                5,
                6,
                7,
                8,
                9,
                10
            ]
        }
    ],
    "nodes" : [
        {
            "mesh" : 0,
            "name" : "Cylinder",
            "scale" : [
                0.14365337789058685,
                0.8288053870201111,
                0.14365337789058685
            ],
            "translation" : [
                -0.000308475224301219,
                1.8881127834320068,
                -0.05463387072086334
            ]
        },
        {
            "mesh" : 1,
            "name" : "Sphere",
            "scale" : [
                0.2021283358335495,
                0.2021283358335495,
                0.2021283358335495
            ],
            "translation" : [
                -0.000308475224301219,
                1.8894124031066895,
                -0.05213844031095505
            ]
        },
        {
            "mesh" : 2,
            "name" : "Plane",
            "rotation" : [
                0,
                0,
                -0.7071067690849304,
                0.7071068286895752
            ],
            "scale" : [
                0.081026591360569,
                0.13466082513332367,
                0.13466082513332367
            ],
            "translation" : [
                0.02729085460305214,
                1.88901948928833,
                -0.05213844031095505
            ]
        },
        {
            "mesh" : 3,
            "name" : "Torus.001",
            "rotation" : [
                0,
                0,
                -0.7071067690849304,
                0.7071068286895752
            ],
            "scale" : [
                0.4072840213775635,
                0.4072840213775635,
                0.4072840213775635
            ],
            "translation" : [
                -0.000308475224301219,
                2.859636068344116,
                -0.04284127056598663
            ]
        },
        {
            "mesh" : 4,
            "name" : "Torus.002",
            "rotation" : [
                -0.5,
                0.5,
                -0.4999999701976776,
                0.5
            ],
            "scale" : [
                0.08094128966331482,
                0.09730279445648193,
                0.08094128966331482
            ],
            "translation" : [
                -0.000308475224301219,
                1.8086793422698975,
                1.4163222312927246
            ]
        },
        {
            "mesh" : 5,
            "name" : "Torus.003",
            "rotation" : [
                -0.5,
                0.5,
                -0.4999999701976776,
                0.5
            ],
            "scale" : [
                0.08094128966331482,
                0.09730279445648193,
                0.08094128966331482
            ],
            "translation" : [
                -0.000308475224301219,
                1.8086793422698975,
                -1.5173254013061523
            ]
        },
        {
            "mesh" : 6,
            "name" : "Sphere.002",
            "scale" : [
                0.5533835887908936,
                0.3193272650241852,
                0.6755000352859497
            ],
            "translation" : [
                -0.000308475224301219,
                0.42072224617004395,
                1.4370861053466797
            ]
        },
        {
            "name" : "NurbsPath.001",
            "rotation" : [
                0.7061780095100403,
                -0.7061780095100403,
                -0.03623005002737045,
                0.03623005375266075
            ],
            "scale" : [
                0.1400507092475891,
                1.2281818389892578,
                1.2281818389892578
            ],
            "translation" : [
                -0.000308475224301219,
                1.4681129455566406,
                -1.5242979526519775
            ]
        },
        {
            "name" : "NurbsPath.002",
            "rotation" : [
                0.7061780095100403,
                -0.7061780095100403,
                -0.03623005002737045,
                0.03623005375266075
            ],
            "scale" : [
                0.1400507092475891,
                1.2281818389892578,
                1.2281818389892578
            ],
            "translation" : [
                -0.000308475224301219,
                1.4681129455566406,
                1.4199695587158203
            ]
        },
        {
            "mesh" : 7,
            "name" : "Sphere.003",
            "scale" : [
                0.5533835887908936,
                0.3193272650241852,
                0.6755000352859497
            ],
            "translation" : [
                -0.000308475224301219,
                0.42072224617004395,
                -1.5123672485351562
            ]
        },
        {
            "mesh" : 8,
            "name" : "Text",
            "rotation" : [
                0.5,
                0.5,
                -0.5,
                0.4999999701976776
            ],
            "scale" : [
                0.5136640071868896,
                0.5136640071868896,
                0.5136640071868896
            ],
            "translation" : [
                -0.0020428814459592104,
                3.7187087535858154,
                1.0828604698181152
            ]
        }
    ],
    "materials" : [
        {
            "doubleSided" : true,
            "name" : "Material.002",
            "pbrMetallicRoughness" : {
                "baseColorFactor" : [
                    0,
                    0.16146598756313324,
                    1,
                    1
                ],
                "metallicFactor" : 0,
                "roughnessFactor" : 0.4000000059604645
            }
        },
        {
            "doubleSided" : true,
            "name" : "Material.004",
            "pbrMetallicRoughness" : {
                "baseColorFactor" : [
                    0.8000000715255737,
                    0.003399750217795372,
                    0,
                    1
                ],
                "metallicFactor" : 0,
                "roughnessFactor" : 0.4000000059604645
            }
        },
        {
            "doubleSided" : true,
            "name" : "Material.003",
            "pbrMetallicRoughness" : {
                "baseColorFactor" : [
                    0,
                    0.20445095002651215,
                    1,
                    1
                ],
                "metallicFactor" : 0,
                "roughnessFactor" : 0.4000000059604645
            }
        },
        {
            "doubleSided" : true,
            "name" : "Material.001",
            "pbrMetallicRoughness" : {
                "baseColorFactor" : [
                    0.800000011920929,
                    0.800000011920929,
                    0.800000011920929,
                    1
                ],
                "metallicFactor" : 0,
                "roughnessFactor" : 0.5
            }
        },
        {
            "doubleSided" : true,
            "name" : "Material.005",
            "pbrMetallicRoughness" : {
                "baseColorFactor" : [
                    1,
                    0.9163454174995422,
                    0.6905132532119751,
                    1
                ],
                "metallicFactor" : 0,
                "roughnessFactor" : 0.4000000059604645
            }
        },
        {
            "doubleSided" : true,
            "name" : "Material.006",
            "pbrMetallicRoughness" : {
                "baseColorFactor" : [
                    0,
                    0,
                    0,
                    1
                ],
                "metallicFactor" : 0,
                "roughnessFactor" : 0.4000000059604645
            }
        }
    ],
    "meshes" : [
        {
            "name" : "Cylinder",
            "primitives" : [
                {
                    "attributes" : {
                        "POSITION" : 0,
                        "NORMAL" : 1,
                        "TEXCOORD_0" : 2
                    },
                    "indices" : 3,
                    "material" : 0
                }
            ]
        },
        {
            "name" : "Sphere",
            "primitives" : [
                {
                    "attributes" : {
                        "POSITION" : 4,
                        "NORMAL" : 5,
                        "TEXCOORD_0" : 6
                    },
                    "indices" : 7,
                    "material" : 1
                }
            ]
        },
        {
            "name" : "Plane",
            "primitives" : [
                {
                    "attributes" : {
                        "POSITION" : 8,
                        "NORMAL" : 9,
                        "TEXCOORD_0" : 10
                    },
                    "indices" : 11,
                    "material" : 2
                }
            ]
        },
        {
            "name" : "Torus.001",
            "primitives" : [
                {
                    "attributes" : {
                        "POSITION" : 12,
                        "NORMAL" : 13,
                        "TEXCOORD_0" : 14
                    },
                    "indices" : 15,
                    "material" : 3
                }
            ]
        },
        {
            "name" : "Torus.002",
            "primitives" : [
                {
                    "attributes" : {
                        "POSITION" : 16,
                        "NORMAL" : 17,
                        "TEXCOORD_0" : 18
                    },
                    "indices" : 19
                }
            ]
        },
        {
            "name" : "Torus.004",
            "primitives" : [
                {
                    "attributes" : {
                        "POSITION" : 20,
                        "NORMAL" : 21,
                        "TEXCOORD_0" : 22
                    },
                    "indices" : 19
                }
            ]
        },
        {
            "name" : "Sphere.002",
            "primitives" : [
                {
                    "attributes" : {
                        "POSITION" : 23,
                        "NORMAL" : 24,
                        "TEXCOORD_0" : 25
                    },
                    "indices" : 26,
                    "material" : 4
                }
            ]
        },
        {
            "name" : "Sphere.003",
            "primitives" : [
                {
                    "attributes" : {
                        "POSITION" : 27,
                        "NORMAL" : 28,
                        "TEXCOORD_0" : 29
                    },
                    "indices" : 26,
                    "material" : 4
                }
            ]
        },
        {
            "name" : "Text",
            "primitives" : [
                {
                    "attributes" : {
                        "POSITION" : 30,
                        "NORMAL" : 31,
                        "TEXCOORD_0" : 32
                    },
                    "indices" : 33,
                    "material" : 5
                }
            ]
        }
    ],
    "accessors" : [
        {
            "bufferView" : 0,
            "componentType" : 5126,
            "count" : 707,
            "max" : [
                1,
                1.000000238418579,
                1
            ],
            "min" : [
                -1,
                -1,
                -1
            ],
            "type" : "VEC3"
        },
        {
            "bufferView" : 1,
            "componentType" : 5126,
            "count" : 707,
            "type" : "VEC3"
        },
        {
            "bufferView" : 2,
            "componentType" : 5126,
            "count" : 707,
            "type" : "VEC2"
        },
        {
            "bufferView" : 3,
            "componentType" : 5123,
            "count" : 2484,
            "type" : "SCALAR"
        },
        {
            "bufferView" : 4,
            "componentType" : 5126,
            "count" : 682,
            "max" : [
                0.998992919921875,
                1,
                0.995974063873291
            ],
            "min" : [
                -0.9989926218986511,
                -1,
                -0.999999463558197
            ],
            "type" : "VEC3"
        },
        {
            "bufferView" : 5,
            "componentType" : 5126,
            "count" : 682,
            "type" : "VEC3"
        },
        {
            "bufferView" : 6,
            "componentType" : 5126,
            "count" : 682,
            "type" : "VEC2"
        },
        {
            "bufferView" : 7,
            "componentType" : 5123,
            "count" : 3570,
            "type" : "SCALAR"
        },
        {
            "bufferView" : 8,
            "componentType" : 5126,
            "count" : 140,
            "max" : [
                1,
                1.8361188836024667e-07,
                12.366439819335938
            ],
            "min" : [
                -1.4320127964019775,
                -0.6221880912780762,
                -12.171873092651367
            ],
            "type" : "VEC3"
        },
        {
            "bufferView" : 9,
            "componentType" : 5126,
            "count" : 140,
            "type" : "VEC3"
        },
        {
            "bufferView" : 10,
            "componentType" : 5126,
            "count" : 140,
            "type" : "VEC2"
        },
        {
            "bufferView" : 11,
            "componentType" : 5123,
            "count" : 228,
            "type" : "SCALAR"
        },
        {
            "bufferView" : 12,
            "componentType" : 5126,
            "count" : 836,
            "max" : [
                1.25,
                0.24745535850524902,
                1.2457306385040283
            ],
            "min" : [
                -1.2329517602920532,
                -0.24745535850524902,
                -1.2457306385040283
            ],
            "type" : "VEC3"
        },
        {
            "bufferView" : 13,
            "componentType" : 5126,
            "count" : 836,
            "type" : "VEC3"
        },
        {
            "bufferView" : 14,
            "componentType" : 5126,
            "count" : 836,
            "type" : "VEC2"
        },
        {
            "bufferView" : 15,
            "componentType" : 5123,
            "count" : 1254,
            "type" : "SCALAR"
        },
        {
            "bufferView" : 16,
            "componentType" : 5126,
            "count" : 13376,
            "max" : [
                1.2275352478027344,
                0.24291911721229553,
                1.2263909578323364
            ],
            "min" : [
                -1.2221453189849854,
                -0.24291911721229553,
                -1.2263909578323364
            ],
            "type" : "VEC3"
        },
        {
            "bufferView" : 17,
            "componentType" : 5126,
            "count" : 13376,
            "type" : "VEC3"
        },
        {
            "bufferView" : 18,
            "componentType" : 5126,
            "count" : 13376,
            "type" : "VEC2"
        },
        {
            "bufferView" : 19,
            "componentType" : 5123,
            "count" : 20064,
            "type" : "SCALAR"
        },
        {
            "bufferView" : 20,
            "componentType" : 5126,
            "count" : 13376,
            "max" : [
                1.2275352478027344,
                0.24291911721229553,
                1.2263909578323364
            ],
            "min" : [
                -1.2221453189849854,
                -0.24291911721229553,
                -1.2263909578323364
            ],
            "type" : "VEC3"
        },
        {
            "bufferView" : 21,
            "componentType" : 5126,
            "count" : 13376,
            "type" : "VEC3"
        },
        {
            "bufferView" : 22,
            "componentType" : 5126,
            "count" : 13376,
            "type" : "VEC2"
        },
        {
            "bufferView" : 23,
            "componentType" : 5126,
            "count" : 2122,
            "max" : [
                0.9999997019767761,
                -4.371138828673793e-08,
                0.9999994039535522
            ],
            "min" : [
                -0.9999990463256836,
                -1,
                -0.9999987483024597
            ],
            "type" : "VEC3"
        },
        {
            "bufferView" : 24,
            "componentType" : 5126,
            "count" : 2122,
            "type" : "VEC3"
        },
        {
            "bufferView" : 25,
            "componentType" : 5126,
            "count" : 2122,
            "type" : "VEC2"
        },
        {
            "bufferView" : 26,
            "componentType" : 5123,
            "count" : 3084,
            "type" : "SCALAR"
        },
        {
            "bufferView" : 27,
            "componentType" : 5126,
            "count" : 2122,
            "max" : [
                0.9999997019767761,
                -4.371138828673793e-08,
                0.9999994039535522
            ],
            "min" : [
                -0.9999990463256836,
                -1,
                -0.9999987483024597
            ],
            "type" : "VEC3"
        },
        {
            "bufferView" : 28,
            "componentType" : 5126,
            "count" : 2122,
            "type" : "VEC3"
        },
        {
            "bufferView" : 29,
            "componentType" : 5126,
            "count" : 2122,
            "type" : "VEC2"
        },
        {
            "bufferView" : 30,
            "componentType" : 5126,
            "count" : 7876,
            "max" : [
                5.319000720977783,
                0.029999999329447746,
                0.009000000543892384
            ],
            "min" : [
                0.04000000283122063,
                -0.029999999329447746,
                -0.6910000443458557
            ],
            "type" : "VEC3"
        },
        {
            "bufferView" : 31,
            "componentType" : 5126,
            "count" : 7876,
            "type" : "VEC3"
        },
        {
            "bufferView" : 32,
            "componentType" : 5126,
            "count" : 7876,
            "type" : "VEC2"
        },
        {
            "bufferView" : 33,
            "componentType" : 5123,
            "count" : 14448,
            "type" : "SCALAR"
        }
    ],
    "bufferViews" : [
        {
            "buffer" : 0,
            "byteLength" : 8484,
            "byteOffset" : 0
        },
        {
            "buffer" : 0,
            "byteLength" : 8484,
            "byteOffset" : 8484
        },
        {
            "buffer" : 0,
            "byteLength" : 5656,
            "byteOffset" : 16968
        },
        {
            "buffer" : 0,
            "byteLength" : 4968,
            "byteOffset" : 22624
        },
        {
            "buffer" : 0,
            "byteLength" : 8184,
            "byteOffset" : 27592
        },
        {
            "buffer" : 0,
            "byteLength" : 8184,
            "byteOffset" : 35776
        },
        {
            "buffer" : 0,
            "byteLength" : 5456,
            "byteOffset" : 43960
        },
        {
            "buffer" : 0,
            "byteLength" : 7140,
            "byteOffset" : 49416
        },
        {
            "buffer" : 0,
            "byteLength" : 1680,
            "byteOffset" : 56556
        },
        {
            "buffer" : 0,
            "byteLength" : 1680,
            "byteOffset" : 58236
        },
        {
            "buffer" : 0,
            "byteLength" : 1120,
            "byteOffset" : 59916
        },
        {
            "buffer" : 0,
            "byteLength" : 456,
            "byteOffset" : 61036
        },
        {
            "buffer" : 0,
            "byteLength" : 10032,
            "byteOffset" : 61492
        },
        {
            "buffer" : 0,
            "byteLength" : 10032,
            "byteOffset" : 71524
        },
        {
            "buffer" : 0,
            "byteLength" : 6688,
            "byteOffset" : 81556
        },
        {
            "buffer" : 0,
            "byteLength" : 2508,
            "byteOffset" : 88244
        },
        {
            "buffer" : 0,
            "byteLength" : 160512,
            "byteOffset" : 90752
        },
        {
            "buffer" : 0,
            "byteLength" : 160512,
            "byteOffset" : 251264
        },
        {
            "buffer" : 0,
            "byteLength" : 107008,
            "byteOffset" : 411776
        },
        {
            "buffer" : 0,
            "byteLength" : 40128,
            "byteOffset" : 518784
        },
        {
            "buffer" : 0,
            "byteLength" : 160512,
            "byteOffset" : 558912
        },
        {
            "buffer" : 0,
            "byteLength" : 160512,
            "byteOffset" : 719424
        },
        {
            "buffer" : 0,
            "byteLength" : 107008,
            "byteOffset" : 879936
        },
        {
            "buffer" : 0,
            "byteLength" : 25464,
            "byteOffset" : 986944
        },
        {
            "buffer" : 0,
            "byteLength" : 25464,
            "byteOffset" : 1012408
        },
        {
            "buffer" : 0,
            "byteLength" : 16976,
            "byteOffset" : 1037872
        },
        {
            "buffer" : 0,
            "byteLength" : 6168,
            "byteOffset" : 1054848
        },
        {
            "buffer" : 0,
            "byteLength" : 25464,
            "byteOffset" : 1061016
        },
        {
            "buffer" : 0,
            "byteLength" : 25464,
            "byteOffset" : 1086480
        },
        {
            "buffer" : 0,
            "byteLength" : 16976,
            "byteOffset" : 1111944
        },
        {
            "buffer" : 0,
            "byteLength" : 94512,
            "byteOffset" : 1128920
        },
        {
            "buffer" : 0,
            "byteLength" : 94512,
            "byteOffset" : 1223432
        },
        {
            "buffer" : 0,
            "byteLength" : 63008,
            "byteOffset" : 1317944
        },
        {
            "buffer" : 0,
            "byteLength" : 28896,
            "byteOffset" : 1380952
        }
    ],
    "buffers" : [
        {
            "byteLength" : 1409848,
            "uri" : "data:application/octet-stream;base64,"
        }
    ]
}
