{
    "asset" : {
        "generator" : "Khronos glTF Blender I/O v1.7.33",
        "version" : "2.0"
    },
    "scene" : 0,
    "scenes" : [
        {
            "name" : "Scene",
            "nodes" : [
                0,
                1,
                2
            ]
        }
    ],
    "nodes" : [
        {
            "mesh" : 0,
            "name" : "pCube7_phong4_0",
            "rotation" : [
                0.5,
                0.5,
                -0.5,
                0.5
            ],
            "translation" : [
                0.7072327136993408,
                0.38140061497688293,
                -0.31741517782211304
            ]
        },
        {
            "mesh" : 1,
            "name" : "pCube9_phong4_0",
            "rotation" : [
                0.5,
                0.5,
                -0.5,
                0.5
            ],
            "translation" : [
                0.8315030336380005,
                0.6187863349914551,
                0.3136877119541168
            ]
        },
        {
            "mesh" : 2,
            "name" : "pCube8_phong4_0",
            "rotation" : [
                0.5302172303199768,
                0.7269994616508484,
                -0.3640314042568207,
                0.2404634654521942
            ],
            "translation" : [
                0.9100912809371948,
                0.43293049931526184,
                0.8184887766838074
            ]
        }
    ],
    "materials" : [
        {
            "doubleSided" : true,
            "name" : "phong4",
            "pbrMetallicRoughness" : {
                "baseColorTexture" : {
                    "index" : 0
                },
                "metallicFactor" : 0,
                "roughnessFactor" : 0.8942628502845764
            }
        },
        {
            "doubleSided" : true,
            "name" : "phong4.001",
            "pbrMetallicRoughness" : {
                "baseColorTexture" : {
                    "index" : 1
                },
                "metallicFactor" : 0,
                "roughnessFactor" : 0.8942628502845764
            }
        }
    ],
    "meshes" : [
        {
            "name" : "pCube7_phong4_0",
            "primitives" : [
                {
                    "attributes" : {
                        "POSITION" : 0,
                        "NORMAL" : 1,
                        "TEXCOORD_0" : 2
                    },
                    "indices" : 3,
                    "material" : 0
                }
            ]
        },
        {
            "name" : "pCube9_phong4_0",
            "primitives" : [
                {
                    "attributes" : {
                        "POSITION" : 4,
                        "NORMAL" : 5,
                        "TEXCOORD_0" : 6
                    },
                    "indices" : 7,
                    "material" : 0
                }
            ]
        },
        {
            "name" : "pCube8_phong4_0.001",
            "primitives" : [
                {
                    "attributes" : {
                        "POSITION" : 8,
                        "NORMAL" : 9,
                        "TEXCOORD_0" : 10
                    },
                    "indices" : 11,
                    "material" : 1
                }
            ]
        }
    ],
    "textures" : [
        {
            "sampler" : 0,
            "source" : 0
        },
        {
            "sampler" : 0,
            "source" : 0
        }
    ],
    "images" : [
        {
            "bufferView" : 4,
            "mimeType" : "image/jpeg",
            "name" : "Image_0"
        }
    ],
    "accessors" : [
        {
            "bufferView" : 0,
            "componentType" : 5126,
            "count" : 7780,
            "max" : [
                0.5252907276153564,
                0.02775043249130249,
                1.339266300201416
            ],
            "min" : [
                -0.5273001790046692,
                -0.04113021492958069,
                -0.9214363098144531
            ],
            "type" : "VEC3"
        },
        {
            "bufferView" : 1,
            "componentType" : 5126,
            "count" : 7780,
            "type" : "VEC3"
        },
        {
            "bufferView" : 2,
            "componentType" : 5126,
            "count" : 7780,
            "type" : "VEC2"
        },
        {
            "bufferView" : 3,
            "componentType" : 5123,
            "count" : 46125,
            "type" : "SCALAR"
        },
        {
            "bufferView" : 5,
            "componentType" : 5126,
            "count" : 7770,
            "max" : [
                0.550421953201294,
                0.06134951114654541,
                1.2898902893066406
            ],
            "min" : [
                -0.5379531979560852,
                -0.1040370762348175,
                -0.8897364139556885
            ],
            "type" : "VEC3"
        },
        {
            "bufferView" : 6,
            "componentType" : 5126,
            "count" : 7770,
            "type" : "VEC3"
        },
        {
            "bufferView" : 7,
            "componentType" : 5126,
            "count" : 7770,
            "type" : "VEC2"
        },
        {
            "bufferView" : 8,
            "componentType" : 5123,
            "count" : 46149,
            "type" : "SCALAR"
        },
        {
            "bufferView" : 9,
            "componentType" : 5126,
            "count" : 7799,
            "max" : [
                0.5300432443618774,
                0.06313270330429077,
                1.3350834846496582
            ],
            "min" : [
                -0.5238429307937622,
                -0.10725611448287964,
                -0.9187581539154053
            ],
            "type" : "VEC3"
        },
        {
            "bufferView" : 10,
            "componentType" : 5126,
            "count" : 7799,
            "type" : "VEC3"
        },
        {
            "bufferView" : 11,
            "componentType" : 5126,
            "count" : 7799,
            "type" : "VEC2"
        },
        {
            "bufferView" : 12,
            "componentType" : 5123,
            "count" : 46119,
            "type" : "SCALAR"
        }
    ],
    "bufferViews" : [
        {
            "buffer" : 0,
            "byteLength" : 93360,
            "byteOffset" : 0
        },
        {
            "buffer" : 0,
            "byteLength" : 93360,
            "byteOffset" : 93360
        },
        {
            "buffer" : 0,
            "byteLength" : 62240,
            "byteOffset" : 186720
        },
        {
            "buffer" : 0,
            "byteLength" : 92250,
            "byteOffset" : 248960
        },
        {
            "buffer" : 0,
            "byteLength" : 55074,
            "byteOffset" : 341212
        },
        {
            "buffer" : 0,
            "byteLength" : 93240,
            "byteOffset" : 396288
        },
        {
            "buffer" : 0,
            "byteLength" : 93240,
            "byteOffset" : 489528
        },
        {
            "buffer" : 0,
            "byteLength" : 62160,
            "byteOffset" : 582768
        },
        {
            "buffer" : 0,
            "byteLength" : 92298,
            "byteOffset" : 644928
        },
        {
            "buffer" : 0,
            "byteLength" : 93588,
            "byteOffset" : 737228
        },
        {
            "buffer" : 0,
            "byteLength" : 93588,
            "byteOffset" : 830816
        },
        {
            "buffer" : 0,
            "byteLength" : 62392,
            "byteOffset" : 924404
        },
        {
            "buffer" : 0,
            "byteLength" : 92238,
            "byteOffset" : 986796
        }
    ],
    "samplers" : [
        {
            "magFilter" : 9729,
            "minFilter" : 9987
        }
    ],
    "buffers" : [
        {
            "byteLength" : 1079036,
            "uri" : "data:application/octet-stream;base64,"
        }
    ]
}
