{
    "asset" : {
        "generator" : "Khronos glTF Blender I/O v1.7.33",
        "version" : "2.0"
    },
    "scene" : 0,
    "scenes" : [
        {
            "name" : "Scene",
            "nodes" : [
                0,
                1,
                2
            ]
        }
    ],
    "nodes" : [
        {
            "mesh" : 0,
            "name" : "Cylinder",
            "translation" : [
                0,
                1.093824028968811,
                0
            ]
        },
        {
            "mesh" : 1,
            "name" : "Cylinder.001",
            "scale" : [
                0.898614227771759,
                0.10844888538122177,
                0.898614227771759
            ],
            "translation" : [
                0,
                2.1525840759277344,
                0
            ]
        },
        {
            "mesh" : 2,
            "name" : "Text",
            "rotation" : [
                0.5,
                0.5,
                -0.5,
                0.4999999701976776
            ],
            "scale" : [
                0.4355727434158325,
                0.4355727434158325,
                0.4355727434158325
            ],
            "translation" : [
                0,
                2.4964914321899414,
                0.8585385680198669
            ]
        }
    ],
    "materials" : [
        {
            "doubleSided" : true,
            "name" : "Material.005",
            "pbrMetallicRoughness" : {
                "baseColorFactor" : [
                    0.7932264804840088,
                    0.9423176050186157,
                    1,
                    1
                ],
                "metallicFactor" : 0,
                "roughnessFactor" : 0.4000000059604645
            }
        },
        {
            "doubleSided" : true,
            "name" : "Material.002",
            "pbrMetallicRoughness" : {
                "baseColorFactor" : [
                    0.42001962661743164,
                    0.2031247764825821,
                    0.10858973860740662,
                    1
                ],
                "metallicFactor" : 0,
                "roughnessFactor" : 0.4000000059604645
            }
        },
        {
            "doubleSided" : true,
            "name" : "Material.006",
            "pbrMetallicRoughness" : {
                "baseColorFactor" : [
                    0,
                    0,
                    0,
                    1
                ],
                "metallicFactor" : 0,
                "roughnessFactor" : 0.4000000059604645
            }
        }
    ],
    "meshes" : [
        {
            "name" : "Cylinder.001",
            "primitives" : [
                {
                    "attributes" : {
                        "POSITION" : 0,
                        "NORMAL" : 1,
                        "TEXCOORD_0" : 2
                    },
                    "indices" : 3,
                    "material" : 0
                }
            ]
        },
        {
            "name" : "Cylinder.002",
            "primitives" : [
                {
                    "attributes" : {
                        "POSITION" : 4,
                        "NORMAL" : 5,
                        "TEXCOORD_0" : 6
                    },
                    "indices" : 7,
                    "material" : 1
                }
            ]
        },
        {
            "name" : "Text",
            "primitives" : [
                {
                    "attributes" : {
                        "POSITION" : 8,
                        "NORMAL" : 9,
                        "TEXCOORD_0" : 10
                    },
                    "indices" : 11,
                    "material" : 2
                }
            ]
        }
    ],
    "accessors" : [
        {
            "bufferView" : 0,
            "componentType" : 5126,
            "count" : 876,
            "max" : [
                0.18352076411247253,
                1.0546231269836426,
                0.18486866354942322
            ],
            "min" : [
                -0.18352076411247253,
                -1.0649999380111694,
                -0.18486866354942322
            ],
            "type" : "VEC3"
        },
        {
            "bufferView" : 1,
            "componentType" : 5126,
            "count" : 876,
            "type" : "VEC3"
        },
        {
            "bufferView" : 2,
            "componentType" : 5126,
            "count" : 876,
            "type" : "VEC2"
        },
        {
            "bufferView" : 3,
            "componentType" : 5123,
            "count" : 4128,
            "type" : "SCALAR"
        },
        {
            "bufferView" : 4,
            "componentType" : 5126,
            "count" : 106,
            "max" : [
                0.19725896418094635,
                1.065000057220459,
                0.19870775938034058
            ],
            "min" : [
                -0.19725896418094635,
                -1.0649999380111694,
                -0.19870775938034058
            ],
            "type" : "VEC3"
        },
        {
            "bufferView" : 5,
            "componentType" : 5126,
            "count" : 106,
            "type" : "VEC3"
        },
        {
            "bufferView" : 6,
            "componentType" : 5126,
            "count" : 106,
            "type" : "VEC2"
        },
        {
            "bufferView" : 7,
            "componentType" : 5123,
            "count" : 300,
            "type" : "SCALAR"
        },
        {
            "bufferView" : 8,
            "componentType" : 5126,
            "count" : 3726,
            "max" : [
                4.129000186920166,
                0.05000000074505806,
                0.009000000543892384
            ],
            "min" : [
                0.017000000923871994,
                -0.05000000074505806,
                -0.6820000410079956
            ],
            "type" : "VEC3"
        },
        {
            "bufferView" : 9,
            "componentType" : 5126,
            "count" : 3726,
            "type" : "VEC3"
        },
        {
            "bufferView" : 10,
            "componentType" : 5126,
            "count" : 3726,
            "type" : "VEC2"
        },
        {
            "bufferView" : 11,
            "componentType" : 5123,
            "count" : 6684,
            "type" : "SCALAR"
        }
    ],
    "bufferViews" : [
        {
            "buffer" : 0,
            "byteLength" : 10512,
            "byteOffset" : 0
        },
        {
            "buffer" : 0,
            "byteLength" : 10512,
            "byteOffset" : 10512
        },
        {
            "buffer" : 0,
            "byteLength" : 7008,
            "byteOffset" : 21024
        },
        {
            "buffer" : 0,
            "byteLength" : 8256,
            "byteOffset" : 28032
        },
        {
            "buffer" : 0,
            "byteLength" : 1272,
            "byteOffset" : 36288
        },
        {
            "buffer" : 0,
            "byteLength" : 1272,
            "byteOffset" : 37560
        },
        {
            "buffer" : 0,
            "byteLength" : 848,
            "byteOffset" : 38832
        },
        {
            "buffer" : 0,
            "byteLength" : 600,
            "byteOffset" : 39680
        },
        {
            "buffer" : 0,
            "byteLength" : 44712,
            "byteOffset" : 40280
        },
        {
            "buffer" : 0,
            "byteLength" : 44712,
            "byteOffset" : 84992
        },
        {
            "buffer" : 0,
            "byteLength" : 29808,
            "byteOffset" : 129704
        },
        {
            "buffer" : 0,
            "byteLength" : 13368,
            "byteOffset" : 159512
        }
    ],
    "buffers" : [
        {
            "byteLength" : 172880,
            "uri" : "data:application/octet-stream;base64,"
        }
    ]
}
